<?xml version="1.0" encoding="UTF-8" standalone="yes"?><svg xmlns="http://www.w3.org/2000/svg" xmlns:xlink="http://www.w3.org/1999/xlink" height="436px" style="width:735px;height:436px;" version="1.1" viewBox="0 0 735 436" width="735px"><defs><filter height="300%" id="f65ymyt" width="300%" x="-1" y="-1"><feGaussianBlur result="blurOut" stdDeviation="2.0"/><feColorMatrix in="blurOut" result="blurOut2" type="matrix" values="0 0 0 0 0 0 0 0 0 0 0 0 0 0 0 0 0 0 .4 0"/><feOffset dx="4.0" dy="4.0" in="blurOut2" result="blurOut3"/><feBlend in="SourceGraphic" in2="blurOut3" mode="normal"/></filter></defs><g><!--cluster geometry--><polygon fill="#FFFFFF" filter="url(#f65ymyt)" points="22,24,104,24,111,46.2969,728,46.2969,728,429,22,429,22,24" style="stroke: #000000; stroke-width: 2.0;"/><line style="stroke: #000000; stroke-width: 2.0;" x1="22" x2="111" y1="46.2969" y2="46.2969"/><text fill="#000000" font-family="sans-serif" font-size="14" font-weight="bold" lengthAdjust="spacingAndGlyphs" textLength="76" x="26" y="38.9951">geometry</text><!--cluster ##283271--><!--class vector3d--><rect fill="#FEFECE" filter="url(#f65ymyt)" height="60.8047" style="stroke: #A80036; stroke-width: 1.5;" width="87" x="194.5" y="345.5"/><ellipse cx="209.5" cy="361.5" fill="#ADD1B2" rx="11" ry="11" style="stroke: #A80036; stroke-width: 1.0;"/><path d="M211.8438,357.1719 L212.0156,357.25 C212.2344,356.9375 212.4375,356.8438 212.7344,356.8438 C213.0313,356.8438 213.3125,356.9844 213.4688,357.25 C213.5625,357.4063 213.5781,357.5313 213.5781,357.9688 L213.5781,359.3906 C213.5781,359.8125 213.5469,360 213.4375,360.1563 C213.2656,360.375 213,360.5156 212.7344,360.5156 C212.5156,360.5156 212.2813,360.4063 212.1406,360.2656 C212,360.1406 211.9688,360.0156 211.9063,359.6094 C211.8125,359.2031 211.6406,358.9844 211.1563,358.7031 C210.6875,358.4531 210.0781,358.2969 209.5,358.2969 C207.7656,358.2969 206.5156,359.6094 206.5156,361.3906 L206.5156,362.4844 C206.5156,364.1875 207.8125,365.2813 209.8594,365.2813 C210.625,365.2813 211.3125,365.1563 211.7344,364.8906 C211.9219,364.7969 211.9219,364.7969 212.375,364.3125 C212.5625,364.125 212.7656,364.0469 212.9844,364.0469 C213.4531,364.0469 213.8438,364.4375 213.8438,364.8906 C213.8438,365.2813 213.5156,365.7344 212.9375,366.1406 C212.1875,366.6875 211.0313,366.9844 209.8125,366.9844 C206.9219,366.9844 204.8125,365.0938 204.8125,362.5156 L204.8125,361.3906 C204.8125,358.6719 206.8125,356.5938 209.4375,356.5938 C210.3125,356.5938 210.9063,356.7344 211.8438,357.1719 Z "/><text fill="#000000" font-family="sans-serif" font-size="12" lengthAdjust="spacingAndGlyphs" textLength="55" x="223.5" y="365.6543">vector3d</text><line style="stroke: #A80036; stroke-width: 1.5;" x1="195.5" x2="280.5" y1="377.5" y2="377.5"/><text fill="#000000" font-family="sans-serif" font-size="11" lengthAdjust="spacingAndGlyphs" textLength="25" x="200.5" y="391.7104">x,y,z</text><line style="stroke: #A80036; stroke-width: 1.5;" x1="195.5" x2="280.5" y1="398.3047" y2="398.3047"/><!--class Miller--><rect fill="#FEFECE" filter="url(#f65ymyt)" height="73.6094" style="stroke: #A80036; stroke-width: 1.5;" width="64" x="61" y="339"/><ellipse cx="76" cy="355" fill="#ADD1B2" rx="11" ry="11" style="stroke: #A80036; stroke-width: 1.0;"/><path d="M78.3438,350.6719 L78.5156,350.75 C78.7344,350.4375 78.9375,350.3438 79.2344,350.3438 C79.5313,350.3438 79.8125,350.4844 79.9688,350.75 C80.0625,350.9063 80.0781,351.0313 80.0781,351.4688 L80.0781,352.8906 C80.0781,353.3125 80.0469,353.5 79.9375,353.6563 C79.7656,353.875 79.5,354.0156 79.2344,354.0156 C79.0156,354.0156 78.7813,353.9063 78.6406,353.7656 C78.5,353.6406 78.4688,353.5156 78.4063,353.1094 C78.3125,352.7031 78.1406,352.4844 77.6563,352.2031 C77.1875,351.9531 76.5781,351.7969 76,351.7969 C74.2656,351.7969 73.0156,353.1094 73.0156,354.8906 L73.0156,355.9844 C73.0156,357.6875 74.3125,358.7813 76.3594,358.7813 C77.125,358.7813 77.8125,358.6563 78.2344,358.3906 C78.4219,358.2969 78.4219,358.2969 78.875,357.8125 C79.0625,357.625 79.2656,357.5469 79.4844,357.5469 C79.9531,357.5469 80.3438,357.9375 80.3438,358.3906 C80.3438,358.7813 80.0156,359.2344 79.4375,359.6406 C78.6875,360.1875 77.5313,360.4844 76.3125,360.4844 C73.4219,360.4844 71.3125,358.5938 71.3125,356.0156 L71.3125,354.8906 C71.3125,352.1719 73.3125,350.0938 75.9375,350.0938 C76.8125,350.0938 77.4063,350.2344 78.3438,350.6719 Z "/><text fill="#000000" font-family="sans-serif" font-size="12" lengthAdjust="spacingAndGlyphs" textLength="32" x="90" y="359.1543">Miller</text><line style="stroke: #A80036; stroke-width: 1.5;" x1="62" x2="124" y1="371" y2="371"/><text fill="#000000" font-family="sans-serif" font-size="11" lengthAdjust="spacingAndGlyphs" textLength="24" x="67" y="385.2104">h,k,l</text><text fill="#000000" font-family="sans-serif" font-size="11" lengthAdjust="spacingAndGlyphs" textLength="30" x="67" y="398.0151">u,v,w</text><line style="stroke: #A80036; stroke-width: 1.5;" x1="62" x2="124" y1="404.6094" y2="404.6094"/><!--class quaternion--><rect fill="#FEFECE" filter="url(#f65ymyt)" height="60.8047" style="stroke: #A80036; stroke-width: 1.5;" width="101" x="127.5" y="59"/><ellipse cx="142.5" cy="75" fill="#ADD1B2" rx="11" ry="11" style="stroke: #A80036; stroke-width: 1.0;"/><path d="M144.8438,70.6719 L145.0156,70.75 C145.2344,70.4375 145.4375,70.3438 145.7344,70.3438 C146.0313,70.3438 146.3125,70.4844 146.4688,70.75 C146.5625,70.9063 146.5781,71.0313 146.5781,71.4688 L146.5781,72.8906 C146.5781,73.3125 146.5469,73.5 146.4375,73.6563 C146.2656,73.875 146,74.0156 145.7344,74.0156 C145.5156,74.0156 145.2813,73.9063 145.1406,73.7656 C145,73.6406 144.9688,73.5156 144.9063,73.1094 C144.8125,72.7031 144.6406,72.4844 144.1563,72.2031 C143.6875,71.9531 143.0781,71.7969 142.5,71.7969 C140.7656,71.7969 139.5156,73.1094 139.5156,74.8906 L139.5156,75.9844 C139.5156,77.6875 140.8125,78.7813 142.8594,78.7813 C143.625,78.7813 144.3125,78.6563 144.7344,78.3906 C144.9219,78.2969 144.9219,78.2969 145.375,77.8125 C145.5625,77.625 145.7656,77.5469 145.9844,77.5469 C146.4531,77.5469 146.8438,77.9375 146.8438,78.3906 C146.8438,78.7813 146.5156,79.2344 145.9375,79.6406 C145.1875,80.1875 144.0313,80.4844 142.8125,80.4844 C139.9219,80.4844 137.8125,78.5938 137.8125,76.0156 L137.8125,74.8906 C137.8125,72.1719 139.8125,70.0938 142.4375,70.0938 C143.3125,70.0938 143.9063,70.2344 144.8438,70.6719 Z "/><text fill="#000000" font-family="sans-serif" font-size="12" lengthAdjust="spacingAndGlyphs" textLength="69" x="156.5" y="79.1543">quaternion</text><line style="stroke: #A80036; stroke-width: 1.5;" x1="128.5" x2="227.5" y1="91" y2="91"/><text fill="#000000" font-family="sans-serif" font-size="11" lengthAdjust="spacingAndGlyphs" textLength="39" x="133.5" y="105.2104">a,b,c,d</text><line style="stroke: #A80036; stroke-width: 1.5;" x1="128.5" x2="227.5" y1="111.8047" y2="111.8047"/><!--class rotation--><rect fill="#FEFECE" filter="url(#f65ymyt)" height="48" style="stroke: #A80036; stroke-width: 1.5;" width="82" x="298" y="65.5"/><ellipse cx="313" cy="81.5" fill="#ADD1B2" rx="11" ry="11" style="stroke: #A80036; stroke-width: 1.0;"/><path d="M315.3438,77.1719 L315.5156,77.25 C315.7344,76.9375 315.9375,76.8438 316.2344,76.8438 C316.5313,76.8438 316.8125,76.9844 316.9688,77.25 C317.0625,77.4063 317.0781,77.5313 317.0781,77.9688 L317.0781,79.3906 C317.0781,79.8125 317.0469,80 316.9375,80.1563 C316.7656,80.375 316.5,80.5156 316.2344,80.5156 C316.0156,80.5156 315.7813,80.4063 315.6406,80.2656 C315.5,80.1406 315.4688,80.0156 315.4063,79.6094 C315.3125,79.2031 315.1406,78.9844 314.6563,78.7031 C314.1875,78.4531 313.5781,78.2969 313,78.2969 C311.2656,78.2969 310.0156,79.6094 310.0156,81.3906 L310.0156,82.4844 C310.0156,84.1875 311.3125,85.2813 313.3594,85.2813 C314.125,85.2813 314.8125,85.1563 315.2344,84.8906 C315.4219,84.7969 315.4219,84.7969 315.875,84.3125 C316.0625,84.125 316.2656,84.0469 316.4844,84.0469 C316.9531,84.0469 317.3438,84.4375 317.3438,84.8906 C317.3438,85.2813 317.0156,85.7344 316.4375,86.1406 C315.6875,86.6875 314.5313,86.9844 313.3125,86.9844 C310.4219,86.9844 308.3125,85.0938 308.3125,82.5156 L308.3125,81.3906 C308.3125,78.6719 310.3125,76.5938 312.9375,76.5938 C313.8125,76.5938 314.4063,76.7344 315.3438,77.1719 Z "/><text fill="#000000" font-family="sans-serif" font-size="12" lengthAdjust="spacingAndGlyphs" textLength="50" x="327" y="85.6543">rotation</text><line style="stroke: #A80036; stroke-width: 1.5;" x1="299" x2="379" y1="97.5" y2="97.5"/><line style="stroke: #A80036; stroke-width: 1.5;" x1="299" x2="379" y1="105.5" y2="105.5"/><!--class orientation--><rect fill="#FEFECE" filter="url(#f65ymyt)" height="48" style="stroke: #A80036; stroke-width: 1.5;" width="101" x="449.5" y="65.5"/><ellipse cx="464.5" cy="81.5" fill="#ADD1B2" rx="11" ry="11" style="stroke: #A80036; stroke-width: 1.0;"/><path d="M466.8438,77.1719 L467.0156,77.25 C467.2344,76.9375 467.4375,76.8438 467.7344,76.8438 C468.0313,76.8438 468.3125,76.9844 468.4688,77.25 C468.5625,77.4063 468.5781,77.5313 468.5781,77.9688 L468.5781,79.3906 C468.5781,79.8125 468.5469,80 468.4375,80.1563 C468.2656,80.375 468,80.5156 467.7344,80.5156 C467.5156,80.5156 467.2813,80.4063 467.1406,80.2656 C467,80.1406 466.9688,80.0156 466.9063,79.6094 C466.8125,79.2031 466.6406,78.9844 466.1563,78.7031 C465.6875,78.4531 465.0781,78.2969 464.5,78.2969 C462.7656,78.2969 461.5156,79.6094 461.5156,81.3906 L461.5156,82.4844 C461.5156,84.1875 462.8125,85.2813 464.8594,85.2813 C465.625,85.2813 466.3125,85.1563 466.7344,84.8906 C466.9219,84.7969 466.9219,84.7969 467.375,84.3125 C467.5625,84.125 467.7656,84.0469 467.9844,84.0469 C468.4531,84.0469 468.8438,84.4375 468.8438,84.8906 C468.8438,85.2813 468.5156,85.7344 467.9375,86.1406 C467.1875,86.6875 466.0313,86.9844 464.8125,86.9844 C461.9219,86.9844 459.8125,85.0938 459.8125,82.5156 L459.8125,81.3906 C459.8125,78.6719 461.8125,76.5938 464.4375,76.5938 C465.3125,76.5938 465.9063,76.7344 466.8438,77.1719 Z "/><text fill="#000000" font-family="sans-serif" font-size="12" lengthAdjust="spacingAndGlyphs" textLength="69" x="478.5" y="85.6543">orientation</text><line style="stroke: #A80036; stroke-width: 1.5;" x1="450.5" x2="549.5" y1="97.5" y2="97.5"/><line style="stroke: #A80036; stroke-width: 1.5;" x1="450.5" x2="549.5" y1="105.5" y2="105.5"/><!--class slipSystem--><rect fill="#FEFECE" filter="url(#f65ymyt)" height="48" style="stroke: #A80036; stroke-width: 1.5;" width="98" x="38" y="205.5"/><ellipse cx="53" cy="221.5" fill="#ADD1B2" rx="11" ry="11" style="stroke: #A80036; stroke-width: 1.0;"/><path d="M55.3438,217.1719 L55.5156,217.25 C55.7344,216.9375 55.9375,216.8438 56.2344,216.8438 C56.5313,216.8438 56.8125,216.9844 56.9688,217.25 C57.0625,217.4063 57.0781,217.5313 57.0781,217.9688 L57.0781,219.3906 C57.0781,219.8125 57.0469,220 56.9375,220.1563 C56.7656,220.375 56.5,220.5156 56.2344,220.5156 C56.0156,220.5156 55.7813,220.4063 55.6406,220.2656 C55.5,220.1406 55.4688,220.0156 55.4063,219.6094 C55.3125,219.2031 55.1406,218.9844 54.6563,218.7031 C54.1875,218.4531 53.5781,218.2969 53,218.2969 C51.2656,218.2969 50.0156,219.6094 50.0156,221.3906 L50.0156,222.4844 C50.0156,224.1875 51.3125,225.2813 53.3594,225.2813 C54.125,225.2813 54.8125,225.1563 55.2344,224.8906 C55.4219,224.7969 55.4219,224.7969 55.875,224.3125 C56.0625,224.125 56.2656,224.0469 56.4844,224.0469 C56.9531,224.0469 57.3438,224.4375 57.3438,224.8906 C57.3438,225.2813 57.0156,225.7344 56.4375,226.1406 C55.6875,226.6875 54.5313,226.9844 53.3125,226.9844 C50.4219,226.9844 48.3125,225.0938 48.3125,222.5156 L48.3125,221.3906 C48.3125,218.6719 50.3125,216.5938 52.9375,216.5938 C53.8125,216.5938 54.4063,216.7344 55.3438,217.1719 Z "/><text fill="#000000" font-family="sans-serif" font-size="12" lengthAdjust="spacingAndGlyphs" textLength="66" x="67" y="225.6543">slipSystem</text><line style="stroke: #A80036; stroke-width: 1.5;" x1="39" x2="135" y1="237.5" y2="237.5"/><line style="stroke: #A80036; stroke-width: 1.5;" x1="39" x2="135" y1="245.5" y2="245.5"/><!--class symmetry--><rect fill="#FEFECE" filter="url(#f65ymyt)" height="48" style="stroke: #A80036; stroke-width: 1.5;" width="92" x="374" y="205.5"/><ellipse cx="389" cy="221.5" fill="#A9DCDF" rx="11" ry="11" style="stroke: #A80036; stroke-width: 1.0;"/><path d="M390.5781,223.3125 L386.5313,223.3125 L386.1406,224.2969 L386.5313,224.2969 C386.9844,224.2969 387.125,224.3281 387.2969,224.4531 C387.5156,224.625 387.6406,224.875 387.6406,225.1563 C387.6406,225.4375 387.5,225.7344 387.2344,225.875 C387.1094,225.9688 386.8906,226 386.5313,226 L384.2656,226 C383.5156,226 383.1406,225.7188 383.1406,225.1563 C383.1406,224.8594 383.2969,224.5781 383.5469,224.4219 C383.7031,224.3125 383.8594,224.2969 384.2813,224.2969 L386.9219,217.7813 L385.8438,217.7813 C385.4063,217.7813 385.2344,217.75 385.0625,217.6406 C384.8438,217.4688 384.7031,217.2188 384.7031,216.9375 C384.7031,216.6563 384.8594,216.375 385.1094,216.2031 C385.2656,216.1094 385.3906,216.0938 385.8438,216.0938 L389.5156,216.0938 L392.9063,224.2969 C393.375,224.2969 393.5313,224.3281 393.7031,224.4688 C393.9219,224.625 394.0625,224.875 394.0625,225.1563 C394.0625,225.4375 393.9063,225.7344 393.6563,225.875 C393.5156,225.9688 393.2969,226 392.9375,226 L390.5781,226 C390.1563,226 389.9531,225.9531 389.8125,225.8281 C389.5938,225.6719 389.4531,225.4219 389.4531,225.1563 C389.4531,224.8594 389.6094,224.5781 389.8594,224.4219 C390.0156,224.3125 390.125,224.2969 390.5781,224.2969 L390.9688,224.2969 Z M389.875,221.6094 L388.5469,218.3438 L387.2031,221.6094 Z "/><text fill="#000000" font-family="sans-serif" font-size="12" font-style="italic" lengthAdjust="spacingAndGlyphs" textLength="60" x="403" y="225.6543">symmetry</text><line style="stroke: #A80036; stroke-width: 1.5;" x1="375" x2="465" y1="237.5" y2="237.5"/><line style="stroke: #A80036; stroke-width: 1.5;" x1="375" x2="465" y1="245.5" y2="245.5"/><!--class crystalSymmetry--><a target="_top" xlink:href="http://www.yahoo.com" xlink:title="http://www.yahoo.com"><rect fill="#FEFECE" filter="url(#f65ymyt)" height="60.8047" style="stroke: #A80036; stroke-width: 1.5;" width="133" x="171.5" y="199"/><ellipse cx="186.5" cy="215" fill="#ADD1B2" rx="11" ry="11" style="stroke: #A80036; stroke-width: 1.0;"/><path d="M188.8438,210.6719 L189.0156,210.75 C189.2344,210.4375 189.4375,210.3438 189.7344,210.3438 C190.0313,210.3438 190.3125,210.4844 190.4688,210.75 C190.5625,210.9063 190.5781,211.0313 190.5781,211.4688 L190.5781,212.8906 C190.5781,213.3125 190.5469,213.5 190.4375,213.6563 C190.2656,213.875 190,214.0156 189.7344,214.0156 C189.5156,214.0156 189.2813,213.9063 189.1406,213.7656 C189,213.6406 188.9688,213.5156 188.9063,213.1094 C188.8125,212.7031 188.6406,212.4844 188.1563,212.2031 C187.6875,211.9531 187.0781,211.7969 186.5,211.7969 C184.7656,211.7969 183.5156,213.1094 183.5156,214.8906 L183.5156,215.9844 C183.5156,217.6875 184.8125,218.7813 186.8594,218.7813 C187.625,218.7813 188.3125,218.6563 188.7344,218.3906 C188.9219,218.2969 188.9219,218.2969 189.375,217.8125 C189.5625,217.625 189.7656,217.5469 189.9844,217.5469 C190.4531,217.5469 190.8438,217.9375 190.8438,218.3906 C190.8438,218.7813 190.5156,219.2344 189.9375,219.6406 C189.1875,220.1875 188.0313,220.4844 186.8125,220.4844 C183.9219,220.4844 181.8125,218.5938 181.8125,216.0156 L181.8125,214.8906 C181.8125,212.1719 183.8125,210.0938 186.4375,210.0938 C187.3125,210.0938 187.9063,210.2344 188.8438,210.6719 Z "/><text fill="#000000" font-family="sans-serif" font-size="12" lengthAdjust="spacingAndGlyphs" textLength="101" x="200.5" y="219.1543">crystalSymmetry</text><line style="stroke: #A80036; stroke-width: 1.5;" x1="172.5" x2="303.5" y1="231" y2="231"/><text fill="#000000" font-family="sans-serif" font-size="11" lengthAdjust="spacingAndGlyphs" textLength="36" x="181.5" y="245.2104">a, b, c</text><line style="stroke: #A80036; stroke-width: 1.5;" x1="172.5" x2="303.5" y1="251.8047" y2="251.8047"/></a><!--class specimenSymmetry--><rect fill="#FEFECE" filter="url(#f65ymyt)" height="48" style="stroke: #A80036; stroke-width: 1.5;" width="152" x="536" y="205.5"/><ellipse cx="551" cy="221.5" fill="#ADD1B2" rx="11" ry="11" style="stroke: #A80036; stroke-width: 1.0;"/><path d="M553.3438,217.1719 L553.5156,217.25 C553.7344,216.9375 553.9375,216.8438 554.2344,216.8438 C554.5313,216.8438 554.8125,216.9844 554.9688,217.25 C555.0625,217.4063 555.0781,217.5313 555.0781,217.9688 L555.0781,219.3906 C555.0781,219.8125 555.0469,220 554.9375,220.1563 C554.7656,220.375 554.5,220.5156 554.2344,220.5156 C554.0156,220.5156 553.7813,220.4063 553.6406,220.2656 C553.5,220.1406 553.4688,220.0156 553.4063,219.6094 C553.3125,219.2031 553.1406,218.9844 552.6563,218.7031 C552.1875,218.4531 551.5781,218.2969 551,218.2969 C549.2656,218.2969 548.0156,219.6094 548.0156,221.3906 L548.0156,222.4844 C548.0156,224.1875 549.3125,225.2813 551.3594,225.2813 C552.125,225.2813 552.8125,225.1563 553.2344,224.8906 C553.4219,224.7969 553.4219,224.7969 553.875,224.3125 C554.0625,224.125 554.2656,224.0469 554.4844,224.0469 C554.9531,224.0469 555.3438,224.4375 555.3438,224.8906 C555.3438,225.2813 555.0156,225.7344 554.4375,226.1406 C553.6875,226.6875 552.5313,226.9844 551.3125,226.9844 C548.4219,226.9844 546.3125,225.0938 546.3125,222.5156 L546.3125,221.3906 C546.3125,218.6719 548.3125,216.5938 550.9375,216.5938 C551.8125,216.5938 552.4063,216.7344 553.3438,217.1719 Z "/><text fill="#000000" font-family="sans-serif" font-size="12" lengthAdjust="spacingAndGlyphs" textLength="120" x="565" y="225.6543">specimenSymmetry</text><line style="stroke: #A80036; stroke-width: 1.5;" x1="537" x2="687" y1="237.5" y2="237.5"/><line style="stroke: #A80036; stroke-width: 1.5;" x1="537" x2="687" y1="245.5" y2="245.5"/><path d="M248.837,89.5 C265.095,89.5 281.352,89.5 297.61,89.5 " fill="none" style="stroke: #A80036; stroke-width: 1.0;"/><polygon fill="none" points="248.627,96.5,228.627,89.5,248.627,82.5,248.627,96.5" style="stroke: #A80036; stroke-width: 1.0;"/><path d="M400.215,89.5 C416.629,89.5 433.043,89.5 449.457,89.5 " fill="none" style="stroke: #A80036; stroke-width: 1.0;"/><polygon fill="none" points="400.193,96.5,380.193,89.5,400.193,82.5,400.193,96.5" style="stroke: #A80036; stroke-width: 1.0;"/><path d="M362.838,131.113 C377.03,155.292 394.528,185.103 406.398,205.327 " fill="none" style="stroke: #A80036; stroke-width: 1.0;"/><polygon fill="none" points="356.645,134.39,352.558,113.598,368.719,127.303,356.645,134.39" style="stroke: #A80036; stroke-width: 1.0;"/><path d="M466.125,229.5 C482.667,229.5 499.209,229.5 515.751,229.5 " fill="none" style="stroke: #A80036; stroke-width: 1.0;"/><polygon fill="none" points="515.929,222.5,535.928,229.5,515.928,236.5,515.929,222.5" style="stroke: #A80036; stroke-width: 1.0;"/><path d="M324.994,229.5 C341.217,229.5 357.439,229.5 373.661,229.5 " fill="none" style="stroke: #A80036; stroke-width: 1.0;"/><polygon fill="none" points="324.828,236.5,304.828,229.5,324.828,222.5,324.828,236.5" style="stroke: #A80036; stroke-width: 1.0;"/><path d="M208.307,260.09 C184.114,284.201 150.011,318.185 125.172,342.939 " fill="none" style="stroke: #A80036; stroke-width: 1.0;"/><text fill="#000000" font-family="sans-serif" font-size="13" lengthAdjust="spacingAndGlyphs" textLength="18" x="175" y="305.0669">CS</text><polygon fill="#000000" points="196,299.0664,202,302.0664,196,305.0664,196,299.0664" style="stroke: #000000; stroke-width: 1.0;"/><path d="M238,265.192 C238,289.694 238,322.18 238,345.4491 " fill="none" style="stroke: #A80036; stroke-width: 1.0;"/><polygon fill="#A80036" points="238,260.09,234,269.09,238,265.09,242,269.09,238,260.09" style="stroke: #A80036; stroke-width: 1.0;"/><polygon fill="#000000" points="250,303,253,297,256,303,250,303" style="stroke: #000000; stroke-width: 1.0;"/><text fill="#000000" font-family="sans-serif" font-size="13" lengthAdjust="spacingAndGlyphs" textLength="31" x="239" y="318.0669">a,b,c</text><path d="M486.61,113.598 C471.842,139.072 448.219,179.822 433.434,205.327 " fill="none" style="stroke: #A80036; stroke-width: 1.0;"/><polygon fill="#000000" points="482.5,161,485.5,155,488.5,161,482.5,161" style="stroke: #000000; stroke-width: 1.0;"/><text fill="#000000" font-family="sans-serif" font-size="13" lengthAdjust="spacingAndGlyphs" textLength="44" x="465" y="176.0669">CS, SS</text><path d="M145.034,376 C161.456,376 177.879,376 194.302,376 " fill="none" style="stroke: #A80036; stroke-width: 1.0;"/><polygon fill="none" points="145.002,382.9999,125.002,376,145.002,368.9999,145.002,382.9999" style="stroke: #A80036; stroke-width: 1.0;"/><path d="M87.964,253.716 C88.918,276.693 90.3922,312.196 91.4995,338.863 " fill="none" style="stroke: #A80036; stroke-width: 1.0;"/></g></svg>