<?xml version="1.0" encoding="UTF-8" standalone="yes"?><svg xmlns="http://www.w3.org/2000/svg" xmlns:xlink="http://www.w3.org/1999/xlink" height="750px" style="width:1307px;height:750px;" version="1.1" viewBox="0 0 1307 750" width="1307px"><defs><filter height="300%" id="fxa0sih" width="300%" x="-1" y="-1"><feGaussianBlur result="blurOut" stdDeviation="2.0"/><feColorMatrix in="blurOut" result="blurOut2" type="matrix" values="0 0 0 0 0 0 0 0 0 0 0 0 0 0 0 0 0 0 .4 0"/><feOffset dx="4.0" dy="4.0" in="blurOut2" result="blurOut3"/><feBlend in="SourceGraphic" in2="blurOut3" mode="normal"/></filter></defs><g><!--class phaseList--><rect fill="#FEFECE" filter="url(#fxa0sih)" height="197.7998" style="stroke: #A80036; stroke-width: 1.5;" width="185" x="483.5" y="8"/><ellipse cx="546.75" cy="24" fill="#A9DCDF" rx="11" ry="11" style="stroke: #A80036; stroke-width: 1.0;"/><path d="M551.9531,28.5 L549.5156,28.5 L548.75,25.7656 L544.9688,25.7656 L544.2031,28.5 L541.75,28.5 L545.4219,17.2969 L548.2813,17.2969 L551.9531,28.5 Z M546.8594,18.8125 Q546.7813,19.1563 546.6094,19.8516 Q546.4375,20.5469 545.4844,23.9219 L548.2344,23.9219 Q547.2656,20.5 547.0938,19.8281 Q546.9219,19.1563 546.8594,18.8125 Z "/><text fill="#000000" font-family="sans-serif" font-size="12" font-style="italic" lengthAdjust="spacingAndGlyphs" textLength="50" x="567.25" y="28.6553">phaseList</text><line style="stroke: #A80036; stroke-width: 1.5;" x1="484.5" x2="667.5" y1="40" y2="40"/><ellipse cx="494.5" cy="52.99" fill="none" rx="3" ry="3" style="stroke: #038048; stroke-width: 1.0;"/><text fill="#000000" font-family="sans-serif" font-size="11" lengthAdjust="spacingAndGlyphs" textLength="159" x="503.5" y="55.7573">CSList : list of crystalSymmetry</text><ellipse cx="494.5" cy="67.97" fill="none" rx="3" ry="3" style="stroke: #038048; stroke-width: 1.0;"/><text fill="#000000" font-family="sans-serif" font-size="11" lengthAdjust="spacingAndGlyphs" textLength="60" x="503.5" y="70.7373">phaseMap :</text><ellipse cx="494.5" cy="82.95" fill="none" rx="3" ry="3" style="stroke: #038048; stroke-width: 1.0;"/><text fill="#000000" font-family="sans-serif" font-size="11" lengthAdjust="spacingAndGlyphs" textLength="154" x="503.5" y="85.7173">phaseId : index to phase map</text><rect fill="none" height="6" style="stroke: #C82930; stroke-width: 1.0;" width="6" x="491.5" y="94.9299"/><text fill="#000000" font-family="sans-serif" font-size="11" lengthAdjust="spacingAndGlyphs" textLength="31" x="503.5" y="100.6973">phase</text><rect fill="none" height="6" style="stroke: #C82930; stroke-width: 1.0;" width="6" x="491.5" y="109.9099"/><text fill="#000000" font-family="sans-serif" font-size="11" lengthAdjust="spacingAndGlyphs" textLength="51" x="503.5" y="115.6772">isIndexed</text><rect fill="none" height="6" style="stroke: #C82930; stroke-width: 1.0;" width="6" x="491.5" y="124.8899"/><text fill="#000000" font-family="sans-serif" font-size="11" lengthAdjust="spacingAndGlyphs" textLength="109" x="503.5" y="130.6572">CS : crystalSymmetry</text><rect fill="none" height="6" style="stroke: #C82930; stroke-width: 1.0;" width="6" x="491.5" y="139.8699"/><text fill="#000000" font-family="sans-serif" font-size="11" lengthAdjust="spacingAndGlyphs" textLength="80" x="503.5" y="145.6372">mineral : string</text><rect fill="none" height="6" style="stroke: #C82930; stroke-width: 1.0;" width="6" x="491.5" y="154.8499"/><text fill="#000000" font-family="sans-serif" font-size="11" lengthAdjust="spacingAndGlyphs" textLength="118" x="503.5" y="160.6172">mineralList : cell string</text><rect fill="none" height="6" style="stroke: #C82930; stroke-width: 1.0;" width="6" x="491.5" y="169.8298"/><text fill="#000000" font-family="sans-serif" font-size="11" lengthAdjust="spacingAndGlyphs" textLength="89" x="503.5" y="175.5972">indexedPhasesId</text><rect fill="none" height="6" style="stroke: #C82930; stroke-width: 1.0;" width="6" x="491.5" y="184.8098"/><text fill="#000000" font-family="sans-serif" font-size="11" lengthAdjust="spacingAndGlyphs" textLength="68" x="503.5" y="190.5771">color - string</text><line style="stroke: #A80036; stroke-width: 1.5;" x1="484.5" x2="667.5" y1="197.7998" y2="197.7998"/><!--class EBSD--><rect fill="#FEFECE" filter="url(#fxa0sih)" height="197.7998" style="stroke: #A80036; stroke-width: 1.5;" width="158" x="6" y="312"/><ellipse cx="65.25" cy="328" fill="#ADD1B2" rx="11" ry="11" style="stroke: #A80036; stroke-width: 1.0;"/><path d="M63.1563,327.8438 Q63.1563,329.7188 63.7344,330.7266 Q64.3125,331.7344 65.4688,331.7344 Q66.8125,331.7344 67.4688,329.7188 L69.7344,330.1406 Q68.625,333.6719 65.4531,333.6719 Q63.1094,333.6719 61.8906,332.1875 Q60.6719,330.7031 60.6719,327.8438 Q60.6719,322.125 65.375,322.125 Q66.9219,322.125 67.9609,322.9375 Q69,323.75 69.5,325.3594 L67.2344,325.9063 Q67,325.0313 66.5156,324.5391 Q66.0313,324.0469 65.4063,324.0469 Q63.1563,324.0469 63.1563,327.8438 Z "/><text fill="#000000" font-family="sans-serif" font-size="12" lengthAdjust="spacingAndGlyphs" textLength="31" x="85.75" y="332.6553">EBSD</text><line style="stroke: #A80036; stroke-width: 1.5;" x1="7" x2="163" y1="344" y2="344"/><ellipse cx="17" cy="356.99" fill="none" rx="3" ry="3" style="stroke: #038048; stroke-width: 1.0;"/><text fill="#000000" font-family="sans-serif" font-size="11" lengthAdjust="spacingAndGlyphs" textLength="59" x="26" y="359.7573">id : EBSD id</text><ellipse cx="17" cy="371.97" fill="none" rx="3" ry="3" style="stroke: #038048; stroke-width: 1.0;"/><text fill="#000000" font-family="sans-serif" font-size="11" lengthAdjust="spacingAndGlyphs" textLength="100" x="26" y="374.7373">rotations : rotation</text><ellipse cx="17" cy="386.95" fill="none" rx="3" ry="3" style="stroke: #038048; stroke-width: 1.0;"/><text fill="#000000" font-family="sans-serif" font-size="11" lengthAdjust="spacingAndGlyphs" textLength="117" x="26" y="389.7173">A_D : adjacency matrix</text><ellipse cx="17" cy="401.9299" fill="none" rx="3" ry="3" style="stroke: #038048; stroke-width: 1.0;"/><text fill="#000000" font-family="sans-serif" font-size="11" lengthAdjust="spacingAndGlyphs" textLength="61" x="26" y="404.6973">x,y : double</text><ellipse cx="17" cy="416.9099" fill="none" rx="3" ry="3" style="stroke: #038048; stroke-width: 1.0;"/><text fill="#000000" font-family="sans-serif" font-size="11" lengthAdjust="spacingAndGlyphs" textLength="65" x="26" y="419.6772">prop : struct</text><ellipse cx="17" cy="431.8899" fill="none" rx="3" ry="3" style="stroke: #038048; stroke-width: 1.0;"/><text fill="#000000" font-family="sans-serif" font-size="11" lengthAdjust="spacingAndGlyphs" textLength="85" x="26" y="434.6572">scanUnit : string</text><ellipse cx="17" cy="446.8699" fill="none" rx="3" ry="3" style="stroke: #038048; stroke-width: 1.0;"/><text fill="#000000" font-family="sans-serif" font-size="11" lengthAdjust="spacingAndGlyphs" textLength="87" x="26" y="449.6372">unicCell : double</text><rect fill="none" height="6" style="stroke: #C82930; stroke-width: 1.0;" width="6" x="14" y="458.8499"/><text fill="#000000" font-family="sans-serif" font-size="11" lengthAdjust="spacingAndGlyphs" textLength="132" x="26" y="464.6172">orientations : orientation</text><rect fill="none" height="6" style="stroke: #C82930; stroke-width: 1.0;" width="6" x="14" y="473.8298"/><text fill="#000000" font-family="sans-serif" font-size="11" lengthAdjust="spacingAndGlyphs" textLength="85" x="26" y="479.5972">grainId : double</text><rect fill="none" height="6" style="stroke: #C82930; stroke-width: 1.0;" width="6" x="14" y="488.8098"/><text fill="#000000" font-family="sans-serif" font-size="11" lengthAdjust="spacingAndGlyphs" textLength="105" x="26" y="494.5771">mis2mean : rotation</text><line style="stroke: #A80036; stroke-width: 1.5;" x1="7" x2="163" y1="501.7998" y2="501.7998"/><!--class grain2d--><rect fill="#FEFECE" filter="url(#fxa0sih)" height="227.7598" style="stroke: #A80036; stroke-width: 1.5;" width="195" x="273.5" y="297"/><ellipse cx="345.25" cy="313" fill="#ADD1B2" rx="11" ry="11" style="stroke: #A80036; stroke-width: 1.0;"/><path d="M343.1563,312.8438 Q343.1563,314.7188 343.7344,315.7266 Q344.3125,316.7344 345.4688,316.7344 Q346.8125,316.7344 347.4688,314.7188 L349.7344,315.1406 Q348.625,318.6719 345.4531,318.6719 Q343.1094,318.6719 341.8906,317.1875 Q340.6719,315.7031 340.6719,312.8438 Q340.6719,307.125 345.375,307.125 Q346.9219,307.125 347.9609,307.9375 Q349,308.75 349.5,310.3594 L347.2344,310.9063 Q347,310.0313 346.5156,309.5391 Q346.0313,309.0469 345.4063,309.0469 Q343.1563,309.0469 343.1563,312.8438 Z "/><text fill="#000000" font-family="sans-serif" font-size="12" lengthAdjust="spacingAndGlyphs" textLength="43" x="365.75" y="317.6553">grain2d</text><line style="stroke: #A80036; stroke-width: 1.5;" x1="274.5" x2="467.5" y1="329" y2="329"/><ellipse cx="284.5" cy="341.99" fill="none" rx="3" ry="3" style="stroke: #038048; stroke-width: 1.0;"/><text fill="#000000" font-family="sans-serif" font-size="11" lengthAdjust="spacingAndGlyphs" textLength="60" x="293.5" y="344.7573">id : grain id</text><ellipse cx="284.5" cy="356.97" fill="none" rx="3" ry="3" style="stroke: #038048; stroke-width: 1.0;"/><text fill="#000000" font-family="sans-serif" font-size="11" lengthAdjust="spacingAndGlyphs" textLength="69" x="293.5" y="359.7373">poly : double</text><ellipse cx="284.5" cy="371.95" fill="none" rx="3" ry="3" style="stroke: #038048; stroke-width: 1.0;"/><text fill="#000000" font-family="sans-serif" font-size="11" lengthAdjust="spacingAndGlyphs" textLength="94" x="293.5" y="374.7173">grainSize : double</text><rect fill="none" height="6" style="stroke: #C82930; stroke-width: 1.0;" width="6" x="281.5" y="383.9299"/><text fill="#000000" font-family="sans-serif" font-size="11" lengthAdjust="spacingAndGlyphs" textLength="158" x="293.5" y="389.6973">meanOrientation : orientation</text><rect fill="none" height="6" style="stroke: #C82930; stroke-width: 1.0;" width="6" x="281.5" y="398.9099"/><text fill="#000000" font-family="sans-serif" font-size="11" lengthAdjust="spacingAndGlyphs" textLength="88" x="293.5" y="404.6772">V : list of vertices</text><rect fill="none" height="6" style="stroke: #C82930; stroke-width: 1.0;" width="6" x="281.5" y="413.8899"/><text fill="#000000" font-family="sans-serif" font-size="11" lengthAdjust="spacingAndGlyphs" textLength="85" x="293.5" y="419.6572">scanUnit : string</text><rect fill="none" height="6" style="stroke: #C82930; stroke-width: 1.0;" width="6" x="281.5" y="428.8699"/><text fill="#000000" font-family="sans-serif" font-size="11" lengthAdjust="spacingAndGlyphs" textLength="76" x="293.5" y="434.6372">id2int : double</text><rect fill="none" height="6" style="stroke: #C82930; stroke-width: 1.0;" width="6" x="281.5" y="443.8499"/><text fill="#000000" font-family="sans-serif" font-size="11" lengthAdjust="spacingAndGlyphs" textLength="69" x="293.5" y="449.6172">GOS : double</text><rect fill="none" height="6" style="stroke: #C82930; stroke-width: 1.0;" width="6" x="281.5" y="458.8298"/><text fill="#000000" font-family="sans-serif" font-size="11" lengthAdjust="spacingAndGlyphs" textLength="61" x="293.5" y="464.5972">x,y : double</text><rect fill="none" height="6" style="stroke: #C82930; stroke-width: 1.0;" width="6" x="281.5" y="473.8098"/><text fill="#000000" font-family="sans-serif" font-size="11" lengthAdjust="spacingAndGlyphs" textLength="144" x="293.5" y="479.5771">triplePoints : triplePointList</text><rect fill="none" height="6" style="stroke: #C82930; stroke-width: 1.0;" width="6" x="281.5" y="488.7898"/><text fill="#000000" font-family="sans-serif" font-size="11" lengthAdjust="spacingAndGlyphs" textLength="141" x="293.5" y="494.5571">boundary : grainBoundary</text><rect fill="none" height="6" style="stroke: #C82930; stroke-width: 1.0;" width="6" x="281.5" y="503.7698"/><text fill="#000000" font-family="sans-serif" font-size="11" lengthAdjust="spacingAndGlyphs" textLength="169" x="293.5" y="509.5371">innerBoundary : grainBoundary</text><line style="stroke: #A80036; stroke-width: 1.5;" x1="274.5" x2="467.5" y1="516.7598" y2="516.7598"/><!--class grainBoundary--><rect fill="#FEFECE" filter="url(#fxa0sih)" height="287.6797" style="stroke: #A80036; stroke-width: 1.5;" width="330" x="617" y="267"/><ellipse cx="736.25" cy="283" fill="#ADD1B2" rx="11" ry="11" style="stroke: #A80036; stroke-width: 1.0;"/><path d="M734.1563,282.8438 Q734.1563,284.7188 734.7344,285.7266 Q735.3125,286.7344 736.4688,286.7344 Q737.8125,286.7344 738.4688,284.7188 L740.7344,285.1406 Q739.625,288.6719 736.4531,288.6719 Q734.1094,288.6719 732.8906,287.1875 Q731.6719,285.7031 731.6719,282.8438 Q731.6719,277.125 736.375,277.125 Q737.9219,277.125 738.9609,277.9375 Q740,278.75 740.5,280.3594 L738.2344,280.9063 Q738,280.0313 737.5156,279.5391 Q737.0313,279.0469 736.4063,279.0469 Q734.1563,279.0469 734.1563,282.8438 Z "/><text fill="#000000" font-family="sans-serif" font-size="12" lengthAdjust="spacingAndGlyphs" textLength="83" x="756.75" y="287.6553">grainBoundary</text><line style="stroke: #A80036; stroke-width: 1.5;" x1="618" x2="946" y1="299" y2="299"/><ellipse cx="628" cy="311.99" fill="none" rx="3" ry="3" style="stroke: #038048; stroke-width: 1.0;"/><text fill="#000000" font-family="sans-serif" font-size="11" lengthAdjust="spacingAndGlyphs" textLength="73" x="637" y="314.7573">F : list of faces</text><ellipse cx="628" cy="326.97" fill="none" rx="3" ry="3" style="stroke: #038048; stroke-width: 1.0;"/><text fill="#000000" font-family="sans-serif" font-size="11" lengthAdjust="spacingAndGlyphs" textLength="251" x="637" y="329.7373">grainId : id's of the neigbouring grains to a face</text><ellipse cx="628" cy="341.95" fill="none" rx="3" ry="3" style="stroke: #038048; stroke-width: 1.0;"/><text fill="#000000" font-family="sans-serif" font-size="11" lengthAdjust="spacingAndGlyphs" textLength="42" x="637" y="344.7173">ebsdId :</text><ellipse cx="628" cy="356.9299" fill="none" rx="3" ry="3" style="stroke: #038048; stroke-width: 1.0;"/><text fill="#000000" font-family="sans-serif" font-size="11" lengthAdjust="spacingAndGlyphs" textLength="113" x="637" y="359.6973">misrotation : rotation</text><ellipse cx="628" cy="371.9099" fill="none" rx="3" ry="3" style="stroke: #038048; stroke-width: 1.0;"/><text fill="#000000" font-family="sans-serif" font-size="11" lengthAdjust="spacingAndGlyphs" textLength="56" x="637" y="374.6772">V : vertices</text><ellipse cx="628" cy="386.8899" fill="none" rx="3" ry="3" style="stroke: #038048; stroke-width: 1.0;"/><text fill="#000000" font-family="sans-serif" font-size="11" lengthAdjust="spacingAndGlyphs" textLength="85" x="637" y="389.6572">scanUnit : string</text><ellipse cx="628" cy="401.8699" fill="none" rx="3" ry="3" style="stroke: #038048; stroke-width: 1.0;"/><text fill="#000000" font-family="sans-serif" font-size="11" lengthAdjust="spacingAndGlyphs" textLength="144" x="637" y="404.6372">triplePoints : triplePointList</text><rect fill="none" height="6" style="stroke: #C82930; stroke-width: 1.0;" width="6" x="625" y="413.8499"/><text fill="#000000" font-family="sans-serif" font-size="11" lengthAdjust="spacingAndGlyphs" textLength="145" x="637" y="419.6172">misorientation : orientation</text><rect fill="none" height="6" style="stroke: #C82930; stroke-width: 1.0;" width="6" x="625" y="428.8298"/><text fill="#000000" font-family="sans-serif" font-size="11" lengthAdjust="spacingAndGlyphs" textLength="102" x="637" y="434.5972">direction : vector3d</text><rect fill="none" height="6" style="stroke: #C82930; stroke-width: 1.0;" width="6" x="625" y="443.8098"/><text fill="#000000" font-family="sans-serif" font-size="11" lengthAdjust="spacingAndGlyphs" textLength="304" x="637" y="449.5771">midPoint : x,y coordinates of the midpoint of the segment</text><rect fill="none" height="6" style="stroke: #C82930; stroke-width: 1.0;" width="6" x="625" y="458.7898"/><text fill="#000000" font-family="sans-serif" font-size="11" lengthAdjust="spacingAndGlyphs" textLength="196" x="637" y="464.5571">I_VF : incidence matrix vertices - faces</text><rect fill="none" height="6" style="stroke: #C82930; stroke-width: 1.0;" width="6" x="625" y="473.7698"/><text fill="#000000" font-family="sans-serif" font-size="11" lengthAdjust="spacingAndGlyphs" textLength="190" x="637" y="479.5371">I_FG : incidence matrix faces - grains</text><rect fill="none" height="6" style="stroke: #C82930; stroke-width: 1.0;" width="6" x="625" y="488.7498"/><text fill="#000000" font-family="sans-serif" font-size="11" lengthAdjust="spacingAndGlyphs" textLength="180" x="637" y="494.5171">A_F : adjecency matrix faces - faces</text><rect fill="none" height="6" style="stroke: #C82930; stroke-width: 1.0;" width="6" x="625" y="503.7297"/><text fill="#000000" font-family="sans-serif" font-size="11" lengthAdjust="spacingAndGlyphs" textLength="195" x="637" y="509.4971">segmentId : connected component id</text><rect fill="none" height="6" style="stroke: #C82930; stroke-width: 1.0;" width="6" x="625" y="518.7097"/><text fill="#000000" font-family="sans-serif" font-size="11" lengthAdjust="spacingAndGlyphs" textLength="269" x="637" y="524.4771">segmentSize : number of faces that form a segment</text><rect fill="none" height="6" style="stroke: #C82930; stroke-width: 1.0;" width="6" x="625" y="533.6897"/><text fill="#000000" font-family="sans-serif" font-size="11" lengthAdjust="spacingAndGlyphs" textLength="64" x="637" y="539.457">x,y :  double</text><line style="stroke: #A80036; stroke-width: 1.5;" x1="618" x2="946" y1="546.6797" y2="546.6797"/><!--class triplePointList--><rect fill="#FEFECE" filter="url(#fxa0sih)" height="137.8799" style="stroke: #A80036; stroke-width: 1.5;" width="171" x="1127.5" y="342"/><ellipse cx="1170.85" cy="358" fill="#ADD1B2" rx="11" ry="11" style="stroke: #A80036; stroke-width: 1.0;"/><path d="M1168.7563,357.8438 Q1168.7563,359.7188 1169.3344,360.7266 Q1169.9125,361.7344 1171.0688,361.7344 Q1172.4125,361.7344 1173.0688,359.7188 L1175.3344,360.1406 Q1174.225,363.6719 1171.0531,363.6719 Q1168.7094,363.6719 1167.4906,362.1875 Q1166.2719,360.7031 1166.2719,357.8438 Q1166.2719,352.125 1170.975,352.125 Q1172.5219,352.125 1173.5609,352.9375 Q1174.6,353.75 1175.1,355.3594 L1172.8344,355.9063 Q1172.6,355.0313 1172.1156,354.5391 Q1171.6313,354.0469 1171.0063,354.0469 Q1168.7563,354.0469 1168.7563,357.8438 Z "/><text fill="#000000" font-family="sans-serif" font-size="12" lengthAdjust="spacingAndGlyphs" textLength="76" x="1191.15" y="362.6553">triplePointList</text><line style="stroke: #A80036; stroke-width: 1.5;" x1="1128.5" x2="1297.5" y1="374" y2="374"/><ellipse cx="1138.5" cy="386.99" fill="none" rx="3" ry="3" style="stroke: #038048; stroke-width: 1.0;"/><text fill="#000000" font-family="sans-serif" font-size="11" lengthAdjust="spacingAndGlyphs" textLength="56" x="1147.5" y="389.7573">id : double</text><ellipse cx="1138.5" cy="401.97" fill="none" rx="3" ry="3" style="stroke: #038048; stroke-width: 1.0;"/><text fill="#000000" font-family="sans-serif" font-size="11" lengthAdjust="spacingAndGlyphs" textLength="53" x="1147.5" y="404.7373">V : double</text><ellipse cx="1138.5" cy="416.95" fill="none" rx="3" ry="3" style="stroke: #038048; stroke-width: 1.0;"/><text fill="#000000" font-family="sans-serif" font-size="11" lengthAdjust="spacingAndGlyphs" textLength="85" x="1147.5" y="419.7173">grainId : double</text><ellipse cx="1138.5" cy="431.9299" fill="none" rx="3" ry="3" style="stroke: #038048; stroke-width: 1.0;"/><text fill="#000000" font-family="sans-serif" font-size="11" lengthAdjust="spacingAndGlyphs" textLength="69" x="1147.5" y="434.6973">boundaryId :</text><rect fill="none" height="6" style="stroke: #C82930; stroke-width: 1.0;" width="6" x="1135.5" y="443.9099"/><text fill="#000000" font-family="sans-serif" font-size="11" lengthAdjust="spacingAndGlyphs" textLength="145" x="1147.5" y="449.6772">misorientation : orientation</text><rect fill="none" height="6" style="stroke: #C82930; stroke-width: 1.0;" width="6" x="1135.5" y="458.8899"/><text fill="#000000" font-family="sans-serif" font-size="11" lengthAdjust="spacingAndGlyphs" textLength="70" x="1147.5" y="464.6572">x,y : vector3d</text><line style="stroke: #A80036; stroke-width: 1.5;" x1="1128.5" x2="1297.5" y1="471.8799" y2="471.8799"/><!--class EBSDSquare--><rect fill="#FEFECE" filter="url(#fxa0sih)" height="107.9199" style="stroke: #A80036; stroke-width: 1.5;" width="103" x="33.5" y="634"/><ellipse cx="48.5" cy="650" fill="#ADD1B2" rx="11" ry="11" style="stroke: #A80036; stroke-width: 1.0;"/><path d="M46.4063,649.8438 Q46.4063,651.7188 46.9844,652.7266 Q47.5625,653.7344 48.7188,653.7344 Q50.0625,653.7344 50.7188,651.7188 L52.9844,652.1406 Q51.875,655.6719 48.7031,655.6719 Q46.3594,655.6719 45.1406,654.1875 Q43.9219,652.7031 43.9219,649.8438 Q43.9219,644.125 48.625,644.125 Q50.1719,644.125 51.2109,644.9375 Q52.25,645.75 52.75,647.3594 L50.4844,647.9063 Q50.25,647.0313 49.7656,646.5391 Q49.2813,646.0469 48.6563,646.0469 Q46.4063,646.0469 46.4063,649.8438 Z "/><text fill="#000000" font-family="sans-serif" font-size="12" lengthAdjust="spacingAndGlyphs" textLength="71" x="62.5" y="654.6553">EBSDSquare</text><line style="stroke: #A80036; stroke-width: 1.5;" x1="34.5" x2="135.5" y1="666" y2="666"/><ellipse cx="44.5" cy="678.99" fill="none" rx="3" ry="3" style="stroke: #038048; stroke-width: 1.0;"/><text fill="#000000" font-family="sans-serif" font-size="11" lengthAdjust="spacingAndGlyphs" textLength="13" x="53.5" y="681.7573">dx</text><ellipse cx="44.5" cy="693.97" fill="none" rx="3" ry="3" style="stroke: #038048; stroke-width: 1.0;"/><text fill="#000000" font-family="sans-serif" font-size="11" lengthAdjust="spacingAndGlyphs" textLength="13" x="53.5" y="696.7373">dy</text><rect fill="none" height="6" style="stroke: #C82930; stroke-width: 1.0;" width="6" x="41.5" y="705.95"/><text fill="#000000" font-family="sans-serif" font-size="11" lengthAdjust="spacingAndGlyphs" textLength="51" x="53.5" y="711.7173">gradientX</text><rect fill="none" height="6" style="stroke: #C82930; stroke-width: 1.0;" width="6" x="41.5" y="720.9299"/><text fill="#000000" font-family="sans-serif" font-size="11" lengthAdjust="spacingAndGlyphs" textLength="51" x="53.5" y="726.6973">gradientY</text><line style="stroke: #A80036; stroke-width: 1.5;" x1="34.5" x2="135.5" y1="733.9199" y2="733.9199"/><path d="M464.587,155.501 C401.408,184.342 322.03,223.852 256,267 C224.413,287.641 192.083,313.302 164.156,337.165 " fill="none" style="stroke: #A80036; stroke-width: 1.0;"/><polygon fill="none" points="462.108,148.939,483.217,147.089,467.869,161.699,462.108,148.939" style="stroke: #A80036; stroke-width: 1.0;"/><path d="M77.7697,530.32 C77.1002,554.688 76.9972,580.177 78,604 C78.4075,613.68 79.0811,623.979 79.8538,633.909 " fill="none" style="stroke: #A80036; stroke-width: 1.0;"/><polygon fill="none" points="70.7789,529.928,78.4535,510.177,84.7709,530.403,70.7789,529.928" style="stroke: #A80036; stroke-width: 1.0;"/><path d="M85,510.117 C85,549.812 85,594.29 85,628.714 " fill="none" style="stroke: #A80036; stroke-width: 1.0;"/><polygon fill="#A80036" points="85,633.719,89,624.719,85,628.719,81,624.719,85,633.719" style="stroke: #A80036; stroke-width: 1.0;"/><text fill="#000000" font-family="sans-serif" font-size="13" lengthAdjust="spacingAndGlyphs" textLength="38" x="86" y="599.895">gridify</text><polygon fill="#000000" points="100.5,609.7036,103.5,615.7036,106.5,609.7036,100.5,609.7036" style="stroke: #000000; stroke-width: 1.0;"/><path d="M498.17,222.656 C481.646,247 464.211,272.684 447.728,296.967 " fill="none" style="stroke: #A80036; stroke-width: 1.0;"/><polygon fill="none" points="492.418,218.667,509.442,206.051,504.001,226.53,492.418,218.667" style="stroke: #A80036; stroke-width: 1.0;"/><path d="M654.278,222.756 C664.13,237.2 674.303,252.115 684.407,266.927 " fill="none" style="stroke: #A80036; stroke-width: 1.0;"/><polygon fill="none" points="648.37,226.518,642.882,206.051,659.935,218.628,648.37,226.518" style="stroke: #A80036; stroke-width: 1.0;"/><path d="M687.648,149.232 C766.124,179.302 872.936,222.436 964,267 C1019.63,294.226 1079.92,328.71 1127.24,356.993 " fill="none" style="stroke: #A80036; stroke-width: 1.0;"/><polygon fill="none" points="685.037,155.728,668.839,142.067,690.021,142.645,685.037,155.728" style="stroke: #A80036; stroke-width: 1.0;"/><path d="M164.287,411 C196.509,411 234.156,411 268.427,411 " fill="none" style="stroke: #A80036; stroke-width: 1.0;"/><polygon fill="#A80036" points="273.458,411,264.458,407,268.458,411,264.458,415,273.458,411" style="stroke: #A80036; stroke-width: 1.0;"/><text fill="#000000" font-family="sans-serif" font-size="13" lengthAdjust="spacingAndGlyphs" textLength="60" x="182.25" y="403.895">calcGrains</text><polygon fill="#000000" points="245.25,397.3518,251.25,400.3518,245.25,403.3518,245.25,397.3518" style="stroke: #000000; stroke-width: 1.0;"/><path d="M468.662,411 C511.468,411 562.984,411 611.768,411 " fill="none" style="stroke: #A80036; stroke-width: 1.0;"/><polygon fill="#A80036" points="616.784,411,607.784,407,611.784,411,607.784,415,616.784,411" style="stroke: #A80036; stroke-width: 1.0;"/><text fill="#000000" font-family="sans-serif" font-size="13" lengthAdjust="spacingAndGlyphs" textLength="99" x="486.75" y="403.895">grains.boundary</text><polygon fill="#000000" points="588.75,397.3518,594.75,400.3518,588.75,403.3518,588.75,397.3518" style="stroke: #000000; stroke-width: 1.0;"/><path d="M947.095,411 C1006.57,411 1071.47,411 1122.26,411 " fill="none" style="stroke: #A80036; stroke-width: 1.0;"/><polygon fill="#A80036" points="1127.45,411,1118.45,407,1122.45,411,1118.45,415,1127.45,411" style="stroke: #A80036; stroke-width: 1.0;"/><text fill="#000000" font-family="sans-serif" font-size="13" lengthAdjust="spacingAndGlyphs" textLength="131" x="965.25" y="403.895">boundary.triplePoints</text><polygon fill="#000000" points="1099.25,397.3518,1105.25,400.3518,1099.25,403.3518,1099.25,397.3518" style="stroke: #000000; stroke-width: 1.0;"/></g></svg>