<?xml version="1.0" encoding="UTF-8" standalone="yes"?><svg xmlns="http://www.w3.org/2000/svg" xmlns:xlink="http://www.w3.org/1999/xlink" height="723px" style="width:913px;height:723px;" version="1.1" viewBox="0 0 913 723" width="913px"><defs><filter height="300%" id="fdu2l8k" width="300%" x="-1" y="-1"><feGaussianBlur result="blurOut" stdDeviation="2.0"/><feColorMatrix in="blurOut" result="blurOut2" type="matrix" values="0 0 0 0 0 0 0 0 0 0 0 0 0 0 0 0 0 0 .4 0"/><feOffset dx="4.0" dy="4.0" in="blurOut2" result="blurOut3"/><feBlend in="SourceGraphic" in2="blurOut3" mode="normal"/></filter></defs><g><!--cluster ##4--><!--cluster ##9--><!--class symmetry--><rect fill="#FEFECE" filter="url(#fdu2l8k)" height="122.8999" style="stroke: #A80036; stroke-width: 1.5;" width="125" x="335.5" y="223.5"/><ellipse cx="368.05" cy="239.5" fill="#A9DCDF" rx="11" ry="11" style="stroke: #A80036; stroke-width: 1.0;"/><path d="M373.2531,244 L370.8156,244 L370.05,241.2656 L366.2688,241.2656 L365.5031,244 L363.05,244 L366.7219,232.7969 L369.5813,232.7969 L373.2531,244 Z M368.1594,234.3125 Q368.0813,234.6563 367.9094,235.3516 Q367.7375,236.0469 366.7844,239.4219 L369.5344,239.4219 Q368.5656,236 368.3938,235.3281 Q368.2219,234.6563 368.1594,234.3125 Z "/><text fill="#000000" font-family="sans-serif" font-size="12" font-style="italic" lengthAdjust="spacingAndGlyphs" textLength="54" x="385.95" y="244.1553">symmetry</text><line style="stroke: #A80036; stroke-width: 1.5;" x1="336.5" x2="459.5" y1="255.5" y2="255.5"/><ellipse cx="346.5" cy="268.49" fill="none" rx="3" ry="3" style="stroke: #038048; stroke-width: 1.0;"/><text fill="#000000" font-family="sans-serif" font-size="11" lengthAdjust="spacingAndGlyphs" textLength="54" x="355.5" y="271.2573">id: integer</text><rect fill="none" height="6" style="stroke: #C82930; stroke-width: 1.0;" width="6" x="343.5" y="280.47"/><text fill="#000000" font-family="sans-serif" font-size="11" lengthAdjust="spacingAndGlyphs" textLength="68" x="355.5" y="286.2373">lattice: string</text><rect fill="none" height="6" style="stroke: #C82930; stroke-width: 1.0;" width="6" x="343.5" y="295.45"/><text fill="#000000" font-family="sans-serif" font-size="11" lengthAdjust="spacingAndGlyphs" textLength="99" x="355.5" y="301.2173">pointGroup: string</text><rect fill="none" height="6" style="stroke: #C82930; stroke-width: 1.0;" width="6" x="343.5" y="310.4299"/><text fill="#000000" font-family="sans-serif" font-size="11" lengthAdjust="spacingAndGlyphs" textLength="73" x="355.5" y="316.1973">isLaue: logical</text><rect fill="none" height="6" style="stroke: #C82930; stroke-width: 1.0;" width="6" x="343.5" y="325.4099"/><text fill="#000000" font-family="sans-serif" font-size="11" lengthAdjust="spacingAndGlyphs" textLength="85" x="355.5" y="331.1772">isProper: logical</text><line style="stroke: #A80036; stroke-width: 1.5;" x1="336.5" x2="459.5" y1="338.3999" y2="338.3999"/><!--class crystalSymmetry--><a target="_top" xlink:href="crystalSymmetry_index.html" xlink:title="crystalSymmetry_index.html"><rect fill="#FEFECE" filter="url(#fdu2l8k)" height="137.8799" style="stroke: #A80036; stroke-width: 1.5;" width="225" x="40.5" y="216"/><ellipse cx="101.75" cy="232" fill="#ADD1B2" rx="11" ry="11" style="stroke: #A80036; stroke-width: 1.0;"/><path d="M99.6563,231.8438 Q99.6563,233.7188 100.2344,234.7266 Q100.8125,235.7344 101.9688,235.7344 Q103.3125,235.7344 103.9688,233.7188 L106.2344,234.1406 Q105.125,237.6719 101.9531,237.6719 Q99.6094,237.6719 98.3906,236.1875 Q97.1719,234.7031 97.1719,231.8438 Q97.1719,226.125 101.875,226.125 Q103.4219,226.125 104.4609,226.9375 Q105.5,227.75 106,229.3594 L103.7344,229.9063 Q103.5,229.0313 103.0156,228.5391 Q102.5313,228.0469 101.9063,228.0469 Q99.6563,228.0469 99.6563,231.8438 Z "/><text fill="#000000" font-family="sans-serif" font-size="12" lengthAdjust="spacingAndGlyphs" textLength="94" x="122.25" y="236.6553">crystalSymmetry</text><line style="stroke: #A80036; stroke-width: 1.5;" x1="41.5" x2="264.5" y1="248" y2="248"/><ellipse cx="51.5" cy="260.99" fill="none" rx="3" ry="3" style="stroke: #038048; stroke-width: 1.0;"/></a><a target="_top" xlink:href="/files/doc/vector3d_index.html" xlink:title="/files/doc/vector3d_index.html"><text fill="#000000" font-family="sans-serif" font-size="11" lengthAdjust="spacingAndGlyphs" textLength="75" x="60.5" y="263.7573">axes: vector3d</text></a><ellipse cx="51.5" cy="275.97" fill="none" rx="3" ry="3" style="stroke: #038048; stroke-width: 1.0;"/><text fill="#000000" font-family="sans-serif" font-size="11" lengthAdjust="spacingAndGlyphs" textLength="77" x="60.5" y="278.7373">mineral: string</text><ellipse cx="51.5" cy="290.95" fill="none" rx="3" ry="3" style="stroke: #038048; stroke-width: 1.0;"/><text fill="#000000" font-family="sans-serif" font-size="11" lengthAdjust="spacingAndGlyphs" textLength="55" x="60.5" y="293.7173">color: RGB</text><ellipse cx="51.5" cy="305.9299" fill="none" rx="3" ry="3" style="stroke: #038048; stroke-width: 1.0;"/><text fill="#000000" font-family="sans-serif" font-size="11" lengthAdjust="spacingAndGlyphs" textLength="146" x="60.5" y="308.6973">alpha, beta, gamma: double</text><ellipse cx="51.5" cy="320.9099" fill="none" rx="3" ry="3" style="stroke: #038048; stroke-width: 1.0;"/><a target="_top" xlink:href="/files/doc/vector3d_index.html" xlink:title="/files/doc/vector3d_index.html"><text fill="#000000" font-family="sans-serif" font-size="11" lengthAdjust="spacingAndGlyphs" textLength="145" x="60.5" y="323.6772">aAxis, bAxis, cAxis: vector3d</text></a><ellipse cx="51.5" cy="335.8899" fill="none" rx="3" ry="3" style="stroke: #038048; stroke-width: 1.0;"/><a target="_top" xlink:href="/files/doc/vector3d_index.html" xlink:title="/files/doc/vector3d_index.html"><text fill="#000000" font-family="sans-serif" font-size="11" lengthAdjust="spacingAndGlyphs" textLength="199" x="60.5" y="338.6572">aAxisRec, bAxisRec, cAxisRec: vector3d</text></a><line style="stroke: #A80036; stroke-width: 1.5;" x1="41.5" x2="264.5" y1="345.8799" y2="345.8799"/><!--class specimenSymmetry--><rect fill="#FEFECE" filter="url(#fdu2l8k)" height="48" style="stroke: #A80036; stroke-width: 1.5;" width="143" x="530.5" y="261"/><ellipse cx="545.5" cy="277" fill="#ADD1B2" rx="11" ry="11" style="stroke: #A80036; stroke-width: 1.0;"/><path d="M543.4063,276.8438 Q543.4063,278.7188 543.9844,279.7266 Q544.5625,280.7344 545.7188,280.7344 Q547.0625,280.7344 547.7188,278.7188 L549.9844,279.1406 Q548.875,282.6719 545.7031,282.6719 Q543.3594,282.6719 542.1406,281.1875 Q540.9219,279.7031 540.9219,276.8438 Q540.9219,271.125 545.625,271.125 Q547.1719,271.125 548.2109,271.9375 Q549.25,272.75 549.75,274.3594 L547.4844,274.9063 Q547.25,274.0313 546.7656,273.5391 Q546.2813,273.0469 545.6563,273.0469 Q543.4063,273.0469 543.4063,276.8438 Z "/><text fill="#000000" font-family="sans-serif" font-size="12" lengthAdjust="spacingAndGlyphs" textLength="111" x="559.5" y="281.6553">specimenSymmetry</text><line style="stroke: #A80036; stroke-width: 1.5;" x1="531.5" x2="672.5" y1="293" y2="293"/><line style="stroke: #A80036; stroke-width: 1.5;" x1="531.5" x2="672.5" y1="301" y2="301"/><!--class quaternion--><a target="_top" xlink:href="/files/doc/quaternion_index.html" xlink:title="/files/doc/quaternion_index.html"><rect fill="#FEFECE" filter="url(#fdu2l8k)" height="62.98" style="stroke: #A80036; stroke-width: 1.5;" width="103" x="328.5" y="55"/><ellipse cx="348" cy="71" fill="#ADD1B2" rx="11" ry="11" style="stroke: #A80036; stroke-width: 1.0;"/><path d="M345.9063,70.8438 Q345.9063,72.7188 346.4844,73.7266 Q347.0625,74.7344 348.2188,74.7344 Q349.5625,74.7344 350.2188,72.7188 L352.4844,73.1406 Q351.375,76.6719 348.2031,76.6719 Q345.8594,76.6719 344.6406,75.1875 Q343.4219,73.7031 343.4219,70.8438 Q343.4219,65.125 348.125,65.125 Q349.6719,65.125 350.7109,65.9375 Q351.75,66.75 352.25,68.3594 L349.9844,68.9063 Q349.75,68.0313 349.2656,67.5391 Q348.7813,67.0469 348.1563,67.0469 Q345.9063,67.0469 345.9063,70.8438 Z "/><text fill="#000000" font-family="sans-serif" font-size="12" lengthAdjust="spacingAndGlyphs" textLength="61" x="363" y="75.6553">quaternion</text><line style="stroke: #A80036; stroke-width: 1.5;" x1="329.5" x2="430.5" y1="87" y2="87"/><ellipse cx="339.5" cy="99.99" fill="none" rx="3" ry="3" style="stroke: #038048; stroke-width: 1.0;"/><text fill="#000000" font-family="sans-serif" font-size="11" lengthAdjust="spacingAndGlyphs" textLength="77" x="348.5" y="102.7573">a,b,c,d: double</text><line style="stroke: #A80036; stroke-width: 1.5;" x1="329.5" x2="430.5" y1="109.98" y2="109.98"/></a><!--class rotation--><a target="_top" xlink:href="/files/doc/rotation_index.html" xlink:title="/files/doc/rotation_index.html"><rect fill="#FEFECE" filter="url(#fdu2l8k)" height="77.96" style="stroke: #A80036; stroke-width: 1.5;" width="138" x="501" y="47.5"/><ellipse cx="543.9" cy="63.5" fill="#ADD1B2" rx="11" ry="11" style="stroke: #A80036; stroke-width: 1.0;"/><path d="M541.8063,63.3438 Q541.8063,65.2188 542.3844,66.2266 Q542.9625,67.2344 544.1188,67.2344 Q545.4625,67.2344 546.1188,65.2188 L548.3844,65.6406 Q547.275,69.1719 544.1031,69.1719 Q541.7594,69.1719 540.5406,67.6875 Q539.3219,66.2031 539.3219,63.3438 Q539.3219,57.625 544.025,57.625 Q545.5719,57.625 546.6109,58.4375 Q547.65,59.25 548.15,60.8594 L545.8844,61.4063 Q545.65,60.5313 545.1656,60.0391 Q544.6813,59.5469 544.0563,59.5469 Q541.8063,59.5469 541.8063,63.3438 Z "/><text fill="#000000" font-family="sans-serif" font-size="12" lengthAdjust="spacingAndGlyphs" textLength="44" x="564.1" y="68.1553">rotation</text><line style="stroke: #A80036; stroke-width: 1.5;" x1="502" x2="638" y1="79.5" y2="79.5"/><ellipse cx="512" cy="92.49" fill="none" rx="3" ry="3" style="stroke: #038048; stroke-width: 1.0;"/><text fill="#000000" font-family="sans-serif" font-size="11" lengthAdjust="spacingAndGlyphs" textLength="43" x="521" y="95.2573">i: logical</text><rect fill="none" height="6" style="stroke: #C82930; stroke-width: 1.0;" width="6" x="509" y="104.47"/><text fill="#000000" font-family="sans-serif" font-size="11" lengthAdjust="spacingAndGlyphs" textLength="112" x="521" y="110.2373">phi1,Phi,phi2: double</text><line style="stroke: #A80036; stroke-width: 1.5;" x1="502" x2="638" y1="117.46" y2="117.46"/></a><!--class orientation--><a target="_top" xlink:href="/files/doc/orientation_index.html" xlink:title="/files/doc/orientation_index.html"><rect fill="#FEFECE" filter="url(#fdu2l8k)" height="92.9399" style="stroke: #A80036; stroke-width: 1.5;" width="146" x="709" y="40"/><ellipse cx="747.85" cy="56" fill="#ADD1B2" rx="11" ry="11" style="stroke: #A80036; stroke-width: 1.0;"/><path d="M745.7563,55.8438 Q745.7563,57.7188 746.3344,58.7266 Q746.9125,59.7344 748.0688,59.7344 Q749.4125,59.7344 750.0688,57.7188 L752.3344,58.1406 Q751.225,61.6719 748.0531,61.6719 Q745.7094,61.6719 744.4906,60.1875 Q743.2719,58.7031 743.2719,55.8438 Q743.2719,50.125 747.975,50.125 Q749.5219,50.125 750.5609,50.9375 Q751.6,51.75 752.1,53.3594 L749.8344,53.9063 Q749.6,53.0313 749.1156,52.5391 Q748.6313,52.0469 748.0063,52.0469 Q745.7563,52.0469 745.7563,55.8438 Z "/><text fill="#000000" font-family="sans-serif" font-size="12" lengthAdjust="spacingAndGlyphs" textLength="61" x="767.15" y="60.6553">orientation</text><line style="stroke: #A80036; stroke-width: 1.5;" x1="710" x2="854" y1="72" y2="72"/><ellipse cx="720" cy="84.99" fill="none" rx="3" ry="3" style="stroke: #038048; stroke-width: 1.0;"/><text fill="#000000" font-family="sans-serif" font-size="11" lengthAdjust="spacingAndGlyphs" textLength="106" x="729" y="87.7573">CS: crystalSymmetry</text><ellipse cx="720" cy="99.97" fill="none" rx="3" ry="3" style="stroke: #038048; stroke-width: 1.0;"/><text fill="#000000" font-family="sans-serif" font-size="11" lengthAdjust="spacingAndGlyphs" textLength="120" x="729" y="102.7373">SS: specimenSymmetry</text><ellipse cx="720" cy="114.95" fill="none" rx="3" ry="3" style="stroke: #038048; stroke-width: 1.0;"/><text fill="#000000" font-family="sans-serif" font-size="11" lengthAdjust="spacingAndGlyphs" textLength="90" x="729" y="117.7173">antipodal: logical</text><line style="stroke: #A80036; stroke-width: 1.5;" x1="710" x2="854" y1="124.9399" y2="124.9399"/></a><!--class vector3d--><a target="_top" xlink:href="/files/doc/vector3d_index.html" xlink:title="/files/doc/vector3d_index.html"><rect fill="#FEFECE" filter="url(#fdu2l8k)" height="77.96" style="stroke: #A80036; stroke-width: 1.5;" width="116" x="365" y="629.5"/><ellipse cx="395.75" cy="645.5" fill="#ADD1B2" rx="11" ry="11" style="stroke: #A80036; stroke-width: 1.0;"/><path d="M393.6563,645.3438 Q393.6563,647.2188 394.2344,648.2266 Q394.8125,649.2344 395.9688,649.2344 Q397.3125,649.2344 397.9688,647.2188 L400.2344,647.6406 Q399.125,651.1719 395.9531,651.1719 Q393.6094,651.1719 392.3906,649.6875 Q391.1719,648.2031 391.1719,645.3438 Q391.1719,639.625 395.875,639.625 Q397.4219,639.625 398.4609,640.4375 Q399.5,641.25 400,642.8594 L397.7344,643.4063 Q397.5,642.5313 397.0156,642.0391 Q396.5313,641.5469 395.9063,641.5469 Q393.6563,641.5469 393.6563,645.3438 Z "/><text fill="#000000" font-family="sans-serif" font-size="12" lengthAdjust="spacingAndGlyphs" textLength="49" x="413.25" y="650.1553">vector3d</text><line style="stroke: #A80036; stroke-width: 1.5;" x1="366" x2="480" y1="661.5" y2="661.5"/><ellipse cx="376" cy="674.49" fill="none" rx="3" ry="3" style="stroke: #038048; stroke-width: 1.0;"/><text fill="#000000" font-family="sans-serif" font-size="11" lengthAdjust="spacingAndGlyphs" textLength="66" x="385" y="677.2573">x,y,z: double</text><ellipse cx="376" cy="689.47" fill="none" rx="3" ry="3" style="stroke: #038048; stroke-width: 1.0;"/><text fill="#000000" font-family="sans-serif" font-size="11" lengthAdjust="spacingAndGlyphs" textLength="90" x="385" y="692.2373">antipodal: logical</text><line style="stroke: #A80036; stroke-width: 1.5;" x1="366" x2="480" y1="699.46" y2="699.46"/></a><!--class Miller--><rect fill="#FEFECE" filter="url(#fdu2l8k)" height="92.9399" style="stroke: #A80036; stroke-width: 1.5;" width="132" x="551" y="622"/><ellipse cx="596.75" cy="638" fill="#ADD1B2" rx="11" ry="11" style="stroke: #A80036; stroke-width: 1.0;"/><path d="M594.6563,637.8438 Q594.6563,639.7188 595.2344,640.7266 Q595.8125,641.7344 596.9688,641.7344 Q598.3125,641.7344 598.9688,639.7188 L601.2344,640.1406 Q600.125,643.6719 596.9531,643.6719 Q594.6094,643.6719 593.3906,642.1875 Q592.1719,640.7031 592.1719,637.8438 Q592.1719,632.125 596.875,632.125 Q598.4219,632.125 599.4609,632.9375 Q600.5,633.75 601,635.3594 L598.7344,635.9063 Q598.5,635.0313 598.0156,634.5391 Q597.5313,634.0469 596.9063,634.0469 Q594.6563,634.0469 594.6563,637.8438 Z "/><text fill="#000000" font-family="sans-serif" font-size="12" lengthAdjust="spacingAndGlyphs" textLength="32" x="617.25" y="642.6553">Miller</text><line style="stroke: #A80036; stroke-width: 1.5;" x1="552" x2="682" y1="654" y2="654"/><ellipse cx="562" cy="666.99" fill="none" rx="3" ry="3" style="stroke: #038048; stroke-width: 1.0;"/><a target="_top" xlink:href="crystalSymmetry_index.html" xlink:title="crystalSymmetry_index.html"><text fill="#000000" font-family="sans-serif" font-size="11" lengthAdjust="spacingAndGlyphs" textLength="106" x="571" y="669.7573">CS: crystalSymmetry</text></a><rect fill="none" height="6" style="stroke: #C82930; stroke-width: 1.0;" width="6" x="559" y="678.97"/><text fill="#000000" font-family="sans-serif" font-size="11" lengthAdjust="spacingAndGlyphs" textLength="65" x="571" y="684.7373">h,k,l: double</text><rect fill="none" height="6" style="stroke: #C82930; stroke-width: 1.0;" width="6" x="559" y="693.95"/><text fill="#000000" font-family="sans-serif" font-size="11" lengthAdjust="spacingAndGlyphs" textLength="71" x="571" y="699.7173">u,v,w: double</text><line style="stroke: #A80036; stroke-width: 1.5;" x1="552" x2="682" y1="706.9399" y2="706.9399"/><!--class slipSystem--><a target="_top" xlink:href="/files/doc/slipSystem_index.html" xlink:title="/files/doc/slipSystem_index.html"><rect fill="#FEFECE" filter="url(#fdu2l8k)" height="107.9199" style="stroke: #A80036; stroke-width: 1.5;" width="132" x="6" y="435"/><ellipse cx="39" cy="451" fill="#ADD1B2" rx="11" ry="11" style="stroke: #A80036; stroke-width: 1.0;"/><path d="M36.9063,450.8438 Q36.9063,452.7188 37.4844,453.7266 Q38.0625,454.7344 39.2188,454.7344 Q40.5625,454.7344 41.2188,452.7188 L43.4844,453.1406 Q42.375,456.6719 39.2031,456.6719 Q36.8594,456.6719 35.6406,455.1875 Q34.4219,453.7031 34.4219,450.8438 Q34.4219,445.125 39.125,445.125 Q40.6719,445.125 41.7109,445.9375 Q42.75,446.75 43.25,448.3594 L40.9844,448.9063 Q40.75,448.0313 40.2656,447.5391 Q39.7813,447.0469 39.1563,447.0469 Q36.9063,447.0469 36.9063,450.8438 Z "/><text fill="#000000" font-family="sans-serif" font-size="12" lengthAdjust="spacingAndGlyphs" textLength="60" x="57" y="455.6553">slipSystem</text><line style="stroke: #A80036; stroke-width: 1.5;" x1="7" x2="137" y1="467" y2="467"/><ellipse cx="17" cy="479.99" fill="none" rx="3" ry="3" style="stroke: #038048; stroke-width: 1.0;"/></a><a target="_top" xlink:href="/files/doc/Miller_index.html" xlink:title="/files/doc/Miller_index.html"><text fill="#000000" font-family="sans-serif" font-size="11" lengthAdjust="spacingAndGlyphs" textLength="43" x="26" y="482.7573">b: Miller</text></a><ellipse cx="17" cy="494.97" fill="none" rx="3" ry="3" style="stroke: #038048; stroke-width: 1.0;"/><a target="_top" xlink:href="/files/doc/Miller_index.html" xlink:title="/files/doc/Miller_index.html"><text fill="#000000" font-family="sans-serif" font-size="11" lengthAdjust="spacingAndGlyphs" textLength="43" x="26" y="497.7373">n: Miller</text></a><ellipse cx="17" cy="509.95" fill="none" rx="3" ry="3" style="stroke: #038048; stroke-width: 1.0;"/><text fill="#000000" font-family="sans-serif" font-size="11" lengthAdjust="spacingAndGlyphs" textLength="69" x="26" y="512.7173">CRSS: double</text><rect fill="none" height="6" style="stroke: #C82930; stroke-width: 1.0;" width="6" x="14" y="521.9299"/><text fill="#000000" font-family="sans-serif" font-size="11" lengthAdjust="spacingAndGlyphs" textLength="106" x="26" y="527.6973">CS: crystalSymmetry</text><line style="stroke: #A80036; stroke-width: 1.5;" x1="7" x2="137" y1="534.9199" y2="534.9199"/><!--class fibre--><a target="_top" xlink:href="/files/doc/fibre_index.html" xlink:title="/files/doc/fibre_index.html"><rect fill="#FEFECE" filter="url(#fdu2l8k)" height="137.8799" style="stroke: #A80036; stroke-width: 1.5;" width="146" x="709" y="216"/><ellipse cx="764.75" cy="232" fill="#ADD1B2" rx="11" ry="11" style="stroke: #A80036; stroke-width: 1.0;"/><path d="M762.6563,231.8438 Q762.6563,233.7188 763.2344,234.7266 Q763.8125,235.7344 764.9688,235.7344 Q766.3125,235.7344 766.9688,233.7188 L769.2344,234.1406 Q768.125,237.6719 764.9531,237.6719 Q762.6094,237.6719 761.3906,236.1875 Q760.1719,234.7031 760.1719,231.8438 Q760.1719,226.125 764.875,226.125 Q766.4219,226.125 767.4609,226.9375 Q768.5,227.75 769,229.3594 L766.7344,229.9063 Q766.5,229.0313 766.0156,228.5391 Q765.5313,228.0469 764.9063,228.0469 Q762.6563,228.0469 762.6563,231.8438 Z "/><text fill="#000000" font-family="sans-serif" font-size="12" lengthAdjust="spacingAndGlyphs" textLength="26" x="785.25" y="236.6553">fibre</text><line style="stroke: #A80036; stroke-width: 1.5;" x1="710" x2="854" y1="248" y2="248"/><ellipse cx="720" cy="260.99" fill="none" rx="3" ry="3" style="stroke: #038048; stroke-width: 1.0;"/><text fill="#000000" font-family="sans-serif" font-size="11" lengthAdjust="spacingAndGlyphs" textLength="78" x="729" y="263.7573">o1: orientation</text><ellipse cx="720" cy="275.97" fill="none" rx="3" ry="3" style="stroke: #038048; stroke-width: 1.0;"/><text fill="#000000" font-family="sans-serif" font-size="11" lengthAdjust="spacingAndGlyphs" textLength="78" x="729" y="278.7373">o2: orientation</text><ellipse cx="720" cy="290.95" fill="none" rx="3" ry="3" style="stroke: #038048; stroke-width: 1.0;"/><text fill="#000000" font-family="sans-serif" font-size="11" lengthAdjust="spacingAndGlyphs" textLength="43" x="729" y="293.7173">h: Miller</text><rect fill="none" height="6" style="stroke: #C82930; stroke-width: 1.0;" width="6" x="717" y="302.9299"/><text fill="#000000" font-family="sans-serif" font-size="11" lengthAdjust="spacingAndGlyphs" textLength="57" x="729" y="308.6973">r: vector3d</text><rect fill="none" height="6" style="stroke: #C82930; stroke-width: 1.0;" width="6" x="717" y="317.9099"/><text fill="#000000" font-family="sans-serif" font-size="11" lengthAdjust="spacingAndGlyphs" textLength="106" x="729" y="323.6772">CS: crystalSymmetry</text><rect fill="none" height="6" style="stroke: #C82930; stroke-width: 1.0;" width="6" x="717" y="332.8899"/><text fill="#000000" font-family="sans-serif" font-size="11" lengthAdjust="spacingAndGlyphs" textLength="120" x="729" y="338.6572">SS: specimenSymmetry</text><line style="stroke: #A80036; stroke-width: 1.5;" x1="710" x2="854" y1="345.8799" y2="345.8799"/></a><!--class S2Grid--><rect fill="#FEFECE" filter="url(#fdu2l8k)" height="62.98" style="stroke: #A80036; stroke-width: 1.5;" width="123" x="172.5" y="637"/><ellipse cx="211.35" cy="653" fill="#ADD1B2" rx="11" ry="11" style="stroke: #A80036; stroke-width: 1.0;"/><path d="M209.2563,652.8438 Q209.2563,654.7188 209.8344,655.7266 Q210.4125,656.7344 211.5688,656.7344 Q212.9125,656.7344 213.5688,654.7188 L215.8344,655.1406 Q214.725,658.6719 211.5531,658.6719 Q209.2094,658.6719 207.9906,657.1875 Q206.7719,655.7031 206.7719,652.8438 Q206.7719,647.125 211.475,647.125 Q213.0219,647.125 214.0609,647.9375 Q215.1,648.75 215.6,650.3594 L213.3344,650.9063 Q213.1,650.0313 212.6156,649.5391 Q212.1313,649.0469 211.5063,649.0469 Q209.2563,649.0469 209.2563,652.8438 Z "/><text fill="#000000" font-family="sans-serif" font-size="12" lengthAdjust="spacingAndGlyphs" textLength="38" x="230.65" y="657.6553">S2Grid</text><line style="stroke: #A80036; stroke-width: 1.5;" x1="173.5" x2="294.5" y1="669" y2="669"/><ellipse cx="183.5" cy="681.99" fill="none" rx="3" ry="3" style="stroke: #038048; stroke-width: 1.0;"/><text fill="#000000" font-family="sans-serif" font-size="11" lengthAdjust="spacingAndGlyphs" textLength="97" x="192.5" y="684.7573">resolution: double</text><line style="stroke: #A80036; stroke-width: 1.5;" x1="173.5" x2="294.5" y1="691.98" y2="691.98"/><!--class SO3Grid--><rect fill="#FEFECE" filter="url(#fdu2l8k)" height="62.98" style="stroke: #A80036; stroke-width: 1.5;" width="123" x="746.5" y="457.5"/><ellipse cx="781.3" cy="473.5" fill="#ADD1B2" rx="11" ry="11" style="stroke: #A80036; stroke-width: 1.0;"/><path d="M779.2063,473.3438 Q779.2063,475.2188 779.7844,476.2266 Q780.3625,477.2344 781.5188,477.2344 Q782.8625,477.2344 783.5188,475.2188 L785.7844,475.6406 Q784.675,479.1719 781.5031,479.1719 Q779.1594,479.1719 777.9406,477.6875 Q776.7219,476.2031 776.7219,473.3438 Q776.7219,467.625 781.425,467.625 Q782.9719,467.625 784.0109,468.4375 Q785.05,469.25 785.55,470.8594 L783.2844,471.4063 Q783.05,470.5313 782.5656,470.0391 Q782.0813,469.5469 781.4563,469.5469 Q779.2063,469.5469 779.2063,473.3438 Z "/><text fill="#000000" font-family="sans-serif" font-size="12" lengthAdjust="spacingAndGlyphs" textLength="47" x="799.7" y="478.1553">SO3Grid</text><line style="stroke: #A80036; stroke-width: 1.5;" x1="747.5" x2="868.5" y1="489.5" y2="489.5"/><ellipse cx="757.5" cy="502.49" fill="none" rx="3" ry="3" style="stroke: #038048; stroke-width: 1.0;"/><text fill="#000000" font-family="sans-serif" font-size="11" lengthAdjust="spacingAndGlyphs" textLength="97" x="766.5" y="505.2573">resolution: double</text><line style="stroke: #A80036; stroke-width: 1.5;" x1="747.5" x2="868.5" y1="512.48" y2="512.48"/><!--class sphericalRegion--><a target="_top" xlink:href="/files/doc/sphericalRegion_index.html" xlink:title="/files/doc/sphericalRegion_index.html"><rect fill="#FEFECE" filter="url(#fdu2l8k)" height="92.9399" style="stroke: #A80036; stroke-width: 1.5;" width="121" x="173.5" y="442.5"/><ellipse cx="188.5" cy="458.5" fill="#ADD1B2" rx="11" ry="11" style="stroke: #A80036; stroke-width: 1.0;"/><path d="M186.4063,458.3438 Q186.4063,460.2188 186.9844,461.2266 Q187.5625,462.2344 188.7188,462.2344 Q190.0625,462.2344 190.7188,460.2188 L192.9844,460.6406 Q191.875,464.1719 188.7031,464.1719 Q186.3594,464.1719 185.1406,462.6875 Q183.9219,461.2031 183.9219,458.3438 Q183.9219,452.625 188.625,452.625 Q190.1719,452.625 191.2109,453.4375 Q192.25,454.25 192.75,455.8594 L190.4844,456.4063 Q190.25,455.5313 189.7656,455.0391 Q189.2813,454.5469 188.6563,454.5469 Q186.4063,454.5469 186.4063,458.3438 Z "/><text fill="#000000" font-family="sans-serif" font-size="12" lengthAdjust="spacingAndGlyphs" textLength="89" x="202.5" y="463.1553">sphericalRegion</text><line style="stroke: #A80036; stroke-width: 1.5;" x1="174.5" x2="293.5" y1="474.5" y2="474.5"/><ellipse cx="184.5" cy="487.49" fill="none" rx="3" ry="3" style="stroke: #038048; stroke-width: 1.0;"/><text fill="#000000" font-family="sans-serif" font-size="11" lengthAdjust="spacingAndGlyphs" textLength="60" x="193.5" y="490.2573">N: vector3d</text><ellipse cx="184.5" cy="502.47" fill="none" rx="3" ry="3" style="stroke: #038048; stroke-width: 1.0;"/><text fill="#000000" font-family="sans-serif" font-size="11" lengthAdjust="spacingAndGlyphs" textLength="72" x="193.5" y="505.2373">alpha: double</text><ellipse cx="184.5" cy="517.45" fill="none" rx="3" ry="3" style="stroke: #038048; stroke-width: 1.0;"/><text fill="#000000" font-family="sans-serif" font-size="11" lengthAdjust="spacingAndGlyphs" textLength="90" x="193.5" y="520.2173">antipodal: logical</text><line style="stroke: #A80036; stroke-width: 1.5;" x1="174.5" x2="293.5" y1="527.4399" y2="527.4399"/></a><!--class orientationRegion--><a target="_top" xlink:href="/files/doc/orientationRegion_index.html" xlink:title="/files/doc/orientationRegion_index.html"><rect fill="#FEFECE" filter="url(#fdu2l8k)" height="107.9199" style="stroke: #A80036; stroke-width: 1.5;" width="131" x="440.5" y="435"/><ellipse cx="455.5" cy="451" fill="#ADD1B2" rx="11" ry="11" style="stroke: #A80036; stroke-width: 1.0;"/><path d="M453.4063,450.8438 Q453.4063,452.7188 453.9844,453.7266 Q454.5625,454.7344 455.7188,454.7344 Q457.0625,454.7344 457.7188,452.7188 L459.9844,453.1406 Q458.875,456.6719 455.7031,456.6719 Q453.3594,456.6719 452.1406,455.1875 Q450.9219,453.7031 450.9219,450.8438 Q450.9219,445.125 455.625,445.125 Q457.1719,445.125 458.2109,445.9375 Q459.25,446.75 459.75,448.3594 L457.4844,448.9063 Q457.25,448.0313 456.7656,447.5391 Q456.2813,447.0469 455.6563,447.0469 Q453.4063,447.0469 453.4063,450.8438 Z "/><text fill="#000000" font-family="sans-serif" font-size="12" lengthAdjust="spacingAndGlyphs" textLength="99" x="469.5" y="455.6553">orientationRegion</text><line style="stroke: #A80036; stroke-width: 1.5;" x1="441.5" x2="570.5" y1="467" y2="467"/><ellipse cx="451.5" cy="479.99" fill="none" rx="3" ry="3" style="stroke: #038048; stroke-width: 1.0;"/><text fill="#000000" font-family="sans-serif" font-size="11" lengthAdjust="spacingAndGlyphs" textLength="73" x="460.5" y="482.7573">N: orientation</text><ellipse cx="451.5" cy="494.97" fill="none" rx="3" ry="3" style="stroke: #038048; stroke-width: 1.0;"/><text fill="#000000" font-family="sans-serif" font-size="11" lengthAdjust="spacingAndGlyphs" textLength="72" x="460.5" y="497.7373">V: orientation</text><ellipse cx="451.5" cy="509.95" fill="none" rx="3" ry="3" style="stroke: #038048; stroke-width: 1.0;"/><text fill="#000000" font-family="sans-serif" font-size="11" lengthAdjust="spacingAndGlyphs" textLength="9" x="460.5" y="512.7173">F:</text><ellipse cx="451.5" cy="524.9299" fill="none" rx="3" ry="3" style="stroke: #038048; stroke-width: 1.0;"/><text fill="#000000" font-family="sans-serif" font-size="11" lengthAdjust="spacingAndGlyphs" textLength="90" x="460.5" y="527.6973">antipodal: logical</text><line style="stroke: #A80036; stroke-width: 1.5;" x1="441.5" x2="570.5" y1="534.9199" y2="534.9199"/></a><path d="M451.588,86.5 C467.989,86.5 484.39,86.5 500.791,86.5 " fill="none" style="stroke: #A80036; stroke-width: 1.0;"/><polygon fill="none" points="451.582,93.5,431.582,86.5,451.582,79.5,451.582,93.5" style="stroke: #A80036; stroke-width: 1.0;"/><path d="M659.311,86.5 C675.841,86.5 692.37,86.5 708.9,86.5 " fill="none" style="stroke: #A80036; stroke-width: 1.0;"/><polygon fill="none" points="659.148,93.5,639.148,86.5,659.148,79.5,659.148,93.5" style="stroke: #A80036; stroke-width: 1.0;"/><path d="M523.203,140.963 C500.918,166.422 474.164,196.987 451.119,223.314 " fill="none" style="stroke: #A80036; stroke-width: 1.0;"/><polygon fill="none" points="517.988,136.292,536.428,125.854,528.523,145.513,517.988,136.292" style="stroke: #A80036; stroke-width: 1.0;"/><path d="M480.758,285 C497.322,285 513.885,285 530.449,285 " fill="none" style="stroke: #A80036; stroke-width: 1.0;"/><polygon fill="none" points="480.555,292,460.555,285,480.555,278,480.555,292" style="stroke: #A80036; stroke-width: 1.0;"/><path d="M265.93,285 C282.373,285 298.817,285 315.261,285 " fill="none" style="stroke: #A80036; stroke-width: 1.0;"/><polygon fill="none" points="315.318,278,335.318,285,315.318,292,315.318,278" style="stroke: #A80036; stroke-width: 1.0;"/><path d="M501.417,668.5 C517.866,668.5 534.316,668.5 550.765,668.5 " fill="none" style="stroke: #A80036; stroke-width: 1.0;"/><polygon fill="none" points="501.352,675.4999,481.352,668.5,501.352,661.4999,501.352,675.4999" style="stroke: #A80036; stroke-width: 1.0;"/><path d="M180.31,354.106 C191.292,381.494 203.727,412.504 213.862,437.78 " fill="none" style="stroke: #A80036; stroke-width: 1.0;"/><polygon fill="#A80036" points="215.727,442.43,216.0885,432.5878,213.8654,437.7895,208.6637,435.5664,215.727,442.43" style="stroke: #A80036; stroke-width: 1.0;"/><text fill="#000000" font-family="sans-serif" font-size="13" lengthAdjust="spacingAndGlyphs" textLength="123" x="200" y="400.895">fundamentalSector()</text><polygon fill="#000000" points="257,410.7036,260,416.7036,263,410.7036,257,410.7036" style="stroke: #000000; stroke-width: 1.0;"/><path d="M265.866,353.202 C283.031,362.165 300.769,370.748 318,378 C329.536,382.855 333.605,380.824 345,386 C376.17,400.159 408.443,419.534 435.836,437.597 " fill="none" style="stroke: #A80036; stroke-width: 1.0;"/><polygon fill="#A80036" points="440.19,440.483,434.8993,432.1759,436.0227,437.7201,430.4786,438.8435,440.19,440.483" style="stroke: #A80036; stroke-width: 1.0;"/><text fill="#000000" font-family="sans-serif" font-size="13" lengthAdjust="spacingAndGlyphs" textLength="127" x="384" y="400.895">fundamentalRegion()</text><polygon fill="#000000" points="514,394.3518,520,397.3518,514,400.3518,514,394.3518" style="stroke: #000000; stroke-width: 1.0;"/><path d="M93.0677,354.148 C86.6379,364.292 80.994,375.039 77,386 C72.0265,399.649 69.7245,415.01 68.8934,429.589 " fill="none" style="stroke: #A80036; stroke-width: 1.0;"/><polygon fill="#A80036" points="68.6515,434.92,73.0562,426.111,68.8786,429.9252,65.0645,425.7476,68.6515,434.92" style="stroke: #A80036; stroke-width: 1.0;"/><text fill="#000000" font-family="sans-serif" font-size="13" lengthAdjust="spacingAndGlyphs" textLength="94" x="78" y="400.895">fcc(), bcc(), hcp()</text><polygon fill="#000000" points="120.5,410.7036,123.5,416.7036,126.5,410.7036,120.5,410.7036" style="stroke: #000000; stroke-width: 1.0;"/><path d="M234,535.711 C234,565.591 234,604.059 234,631.712 " fill="none" style="stroke: #A80036; stroke-width: 1.0;"/><polygon fill="#A80036" points="234,636.745,238,627.745,234,631.745,230,627.745,234,636.745" style="stroke: #A80036; stroke-width: 1.0;"/><text fill="#000000" font-family="sans-serif" font-size="13" lengthAdjust="spacingAndGlyphs" textLength="71" x="235" y="587.895">plotS2Grid()</text><polygon fill="#000000" points="266,597.7036,269,603.7036,272,597.7036,266,597.7036" style="stroke: #000000; stroke-width: 1.0;"/><path d="M571.766,504.946 C584.697,507.466 598.217,509.675 611,511 C653.439,515.398 664.578,515.567 707,511 C718.141,509.801 729.855,507.878 741.2,505.655 " fill="none" style="stroke: #A80036; stroke-width: 1.0;"/><polygon fill="#A80036" points="746.384,504.615,736.7727,502.4647,741.4818,505.5992,738.3474,510.3082,746.384,504.615" style="stroke: #A80036; stroke-width: 1.0;"/><text fill="#000000" font-family="sans-serif" font-size="13" lengthAdjust="spacingAndGlyphs" textLength="81" x="612" y="506.895">plotSO3Grid()</text><polygon fill="#000000" points="696,500.3518,702,503.3518,696,506.3518,696,500.3518" style="stroke: #000000; stroke-width: 1.0;"/><path d="M571.53,489 C621.761,489 690.808,489 741.323,489 " fill="none" style="stroke: #A80036; stroke-width: 1.0;"/><polygon fill="#A80036" points="746.461,489,737.461,485,741.461,489,737.461,493,746.461,489" style="stroke: #A80036; stroke-width: 1.0;"/><text fill="#000000" font-family="sans-serif" font-size="13" lengthAdjust="spacingAndGlyphs" textLength="125" x="590" y="481.895">equispacedSO3Grid()</text><polygon fill="#000000" points="718,475.3518,724,478.3518,718,481.3518,718,475.3518" style="stroke: #000000; stroke-width: 1.0;"/><path d="M295.646,668.5 C311.943,668.5 328.24,668.5 344.537,668.5 " fill="none" style="stroke: #A80036; stroke-width: 1.0;"/><polygon fill="none" points="344.795,661.4999,364.795,668.5,344.795,675.4999,344.795,661.4999" style="stroke: #A80036; stroke-width: 1.0;"/><path d="M832.213,457.332 C847.197,436.326 865.045,407.1 873,378 C897.963,286.684 912.694,250.943 873,165 C870.387,159.342 867.135,153.946 863.429,148.826 " fill="none" style="stroke: #A80036; stroke-width: 1.0;"/><polygon fill="none" points="857.952,153.192,850.278,133.441,868.595,144.096,857.952,153.192" style="stroke: #A80036; stroke-width: 1.0;"/><path d="M782,133.075 C782,156.14 782,184.703 782,210.754 " fill="none" style="stroke: #A80036; stroke-width: 1.0;"/><polygon fill="#A80036" points="782,215.929,786,206.929,782,210.929,778,206.929,782,215.929" style="stroke: #A80036; stroke-width: 1.0;"/><text fill="#000000" font-family="sans-serif" font-size="13" lengthAdjust="spacingAndGlyphs" textLength="68" x="783" y="179.895">fibre(o1,o2)</text><polygon fill="#000000" points="812.5,189.7036,815.5,195.7036,818.5,189.7036,812.5,189.7036" style="stroke: #000000; stroke-width: 1.0;"/></g></svg>