<?xml version="1.0" encoding="UTF-8" standalone="yes"?><svg xmlns="http://www.w3.org/2000/svg" xmlns:xlink="http://www.w3.org/1999/xlink" height="723px" style="width:1904px;height:723px;" version="1.1" viewBox="0 0 1904 723" width="1904px"><defs><filter height="300%" id="fgxu5u5" width="300%" x="-1" y="-1"><feGaussianBlur result="blurOut" stdDeviation="2.0"/><feColorMatrix in="blurOut" result="blurOut2" type="matrix" values="0 0 0 0 0 0 0 0 0 0 0 0 0 0 0 0 0 0 .4 0"/><feOffset dx="4.0" dy="4.0" in="blurOut2" result="blurOut3"/><feBlend in="SourceGraphic" in2="blurOut3" mode="normal"/></filter></defs><g><!--cluster ##4--><!--cluster ##9--><!--class symmetry--><rect fill="#FEFECE" filter="url(#fgxu5u5)" height="122.8999" style="stroke: #A80036; stroke-width: 1.5;" width="125" x="823.5" y="223.5"/><ellipse cx="856.05" cy="239.5" fill="#A9DCDF" rx="11" ry="11" style="stroke: #A80036; stroke-width: 1.0;"/><path d="M861.2531,244 L858.8156,244 L858.05,241.2656 L854.2688,241.2656 L853.5031,244 L851.05,244 L854.7219,232.7969 L857.5813,232.7969 L861.2531,244 Z M856.1594,234.3125 Q856.0813,234.6563 855.9094,235.3516 Q855.7375,236.0469 854.7844,239.4219 L857.5344,239.4219 Q856.5656,236 856.3938,235.3281 Q856.2219,234.6563 856.1594,234.3125 Z "/><text fill="#000000" font-family="sans-serif" font-size="12" font-style="italic" lengthAdjust="spacingAndGlyphs" textLength="54" x="873.95" y="244.1553">symmetry</text><line style="stroke: #A80036; stroke-width: 1.5;" x1="824.5" x2="947.5" y1="255.5" y2="255.5"/><ellipse cx="834.5" cy="268.49" fill="none" rx="3" ry="3" style="stroke: #038048; stroke-width: 1.0;"/><text fill="#000000" font-family="sans-serif" font-size="11" lengthAdjust="spacingAndGlyphs" textLength="54" x="843.5" y="271.2573">id: integer</text><rect fill="none" height="6" style="stroke: #C82930; stroke-width: 1.0;" width="6" x="831.5" y="280.47"/><text fill="#000000" font-family="sans-serif" font-size="11" lengthAdjust="spacingAndGlyphs" textLength="68" x="843.5" y="286.2373">lattice: string</text><rect fill="none" height="6" style="stroke: #C82930; stroke-width: 1.0;" width="6" x="831.5" y="295.45"/><text fill="#000000" font-family="sans-serif" font-size="11" lengthAdjust="spacingAndGlyphs" textLength="99" x="843.5" y="301.2173">pointGroup: string</text><rect fill="none" height="6" style="stroke: #C82930; stroke-width: 1.0;" width="6" x="831.5" y="310.4299"/><text fill="#000000" font-family="sans-serif" font-size="11" lengthAdjust="spacingAndGlyphs" textLength="73" x="843.5" y="316.1973">isLaue: logical</text><rect fill="none" height="6" style="stroke: #C82930; stroke-width: 1.0;" width="6" x="831.5" y="325.4099"/><text fill="#000000" font-family="sans-serif" font-size="11" lengthAdjust="spacingAndGlyphs" textLength="85" x="843.5" y="331.1772">isProper: logical</text><line style="stroke: #A80036; stroke-width: 1.5;" x1="824.5" x2="947.5" y1="338.3999" y2="338.3999"/><!--class crystalSymmetry--><a target="_top" xlink:href="crystalSymmetry_index.html" xlink:title="crystalSymmetry_index.html"><rect fill="#FEFECE" filter="url(#fgxu5u5)" height="137.8799" style="stroke: #A80036; stroke-width: 1.5;" width="225" x="38.5" y="216"/><ellipse cx="99.75" cy="232" fill="#ADD1B2" rx="11" ry="11" style="stroke: #A80036; stroke-width: 1.0;"/><path d="M97.6563,231.8438 Q97.6563,233.7188 98.2344,234.7266 Q98.8125,235.7344 99.9688,235.7344 Q101.3125,235.7344 101.9688,233.7188 L104.2344,234.1406 Q103.125,237.6719 99.9531,237.6719 Q97.6094,237.6719 96.3906,236.1875 Q95.1719,234.7031 95.1719,231.8438 Q95.1719,226.125 99.875,226.125 Q101.4219,226.125 102.4609,226.9375 Q103.5,227.75 104,229.3594 L101.7344,229.9063 Q101.5,229.0313 101.0156,228.5391 Q100.5313,228.0469 99.9063,228.0469 Q97.6563,228.0469 97.6563,231.8438 Z "/><text fill="#000000" font-family="sans-serif" font-size="12" lengthAdjust="spacingAndGlyphs" textLength="94" x="120.25" y="236.6553">crystalSymmetry</text><line style="stroke: #A80036; stroke-width: 1.5;" x1="39.5" x2="262.5" y1="248" y2="248"/><ellipse cx="49.5" cy="260.99" fill="none" rx="3" ry="3" style="stroke: #038048; stroke-width: 1.0;"/></a><a target="_top" xlink:href="/files/doc/vector3d_index.html" xlink:title="/files/doc/vector3d_index.html"><text fill="#000000" font-family="sans-serif" font-size="11" lengthAdjust="spacingAndGlyphs" textLength="75" x="58.5" y="263.7573">axes: vector3d</text></a><ellipse cx="49.5" cy="275.97" fill="none" rx="3" ry="3" style="stroke: #038048; stroke-width: 1.0;"/><text fill="#000000" font-family="sans-serif" font-size="11" lengthAdjust="spacingAndGlyphs" textLength="77" x="58.5" y="278.7373">mineral: string</text><ellipse cx="49.5" cy="290.95" fill="none" rx="3" ry="3" style="stroke: #038048; stroke-width: 1.0;"/><text fill="#000000" font-family="sans-serif" font-size="11" lengthAdjust="spacingAndGlyphs" textLength="55" x="58.5" y="293.7173">color: RGB</text><ellipse cx="49.5" cy="305.9299" fill="none" rx="3" ry="3" style="stroke: #038048; stroke-width: 1.0;"/><text fill="#000000" font-family="sans-serif" font-size="11" lengthAdjust="spacingAndGlyphs" textLength="146" x="58.5" y="308.6973">alpha, beta, gamma: double</text><ellipse cx="49.5" cy="320.9099" fill="none" rx="3" ry="3" style="stroke: #038048; stroke-width: 1.0;"/><a target="_top" xlink:href="/files/doc/vector3d_index.html" xlink:title="/files/doc/vector3d_index.html"><text fill="#000000" font-family="sans-serif" font-size="11" lengthAdjust="spacingAndGlyphs" textLength="145" x="58.5" y="323.6772">aAxis, bAxis, cAxis: vector3d</text></a><ellipse cx="49.5" cy="335.8899" fill="none" rx="3" ry="3" style="stroke: #038048; stroke-width: 1.0;"/><a target="_top" xlink:href="/files/doc/vector3d_index.html" xlink:title="/files/doc/vector3d_index.html"><text fill="#000000" font-family="sans-serif" font-size="11" lengthAdjust="spacingAndGlyphs" textLength="199" x="58.5" y="338.6572">aAxisRec, bAxisRec, cAxisRec: vector3d</text></a><line style="stroke: #A80036; stroke-width: 1.5;" x1="39.5" x2="262.5" y1="345.8799" y2="345.8799"/><!--class specimenSymmetry--><rect fill="#FEFECE" filter="url(#fgxu5u5)" height="48" style="stroke: #A80036; stroke-width: 1.5;" width="143" x="1508.5" y="261"/><ellipse cx="1523.5" cy="277" fill="#ADD1B2" rx="11" ry="11" style="stroke: #A80036; stroke-width: 1.0;"/><path d="M1521.4063,276.8438 Q1521.4063,278.7188 1521.9844,279.7266 Q1522.5625,280.7344 1523.7188,280.7344 Q1525.0625,280.7344 1525.7188,278.7188 L1527.9844,279.1406 Q1526.875,282.6719 1523.7031,282.6719 Q1521.3594,282.6719 1520.1406,281.1875 Q1518.9219,279.7031 1518.9219,276.8438 Q1518.9219,271.125 1523.625,271.125 Q1525.1719,271.125 1526.2109,271.9375 Q1527.25,272.75 1527.75,274.3594 L1525.4844,274.9063 Q1525.25,274.0313 1524.7656,273.5391 Q1524.2813,273.0469 1523.6563,273.0469 Q1521.4063,273.0469 1521.4063,276.8438 Z "/><text fill="#000000" font-family="sans-serif" font-size="12" lengthAdjust="spacingAndGlyphs" textLength="111" x="1537.5" y="281.6553">specimenSymmetry</text><line style="stroke: #A80036; stroke-width: 1.5;" x1="1509.5" x2="1650.5" y1="293" y2="293"/><line style="stroke: #A80036; stroke-width: 1.5;" x1="1509.5" x2="1650.5" y1="301" y2="301"/><!--class quaternion--><a target="_top" xlink:href="/files/doc/quaternion_index.html" xlink:title="/files/doc/quaternion_index.html"><rect fill="#FEFECE" filter="url(#fgxu5u5)" height="62.98" style="stroke: #A80036; stroke-width: 1.5;" width="103" x="326.5" y="55"/><ellipse cx="346" cy="71" fill="#ADD1B2" rx="11" ry="11" style="stroke: #A80036; stroke-width: 1.0;"/><path d="M343.9063,70.8438 Q343.9063,72.7188 344.4844,73.7266 Q345.0625,74.7344 346.2188,74.7344 Q347.5625,74.7344 348.2188,72.7188 L350.4844,73.1406 Q349.375,76.6719 346.2031,76.6719 Q343.8594,76.6719 342.6406,75.1875 Q341.4219,73.7031 341.4219,70.8438 Q341.4219,65.125 346.125,65.125 Q347.6719,65.125 348.7109,65.9375 Q349.75,66.75 350.25,68.3594 L347.9844,68.9063 Q347.75,68.0313 347.2656,67.5391 Q346.7813,67.0469 346.1563,67.0469 Q343.9063,67.0469 343.9063,70.8438 Z "/><text fill="#000000" font-family="sans-serif" font-size="12" lengthAdjust="spacingAndGlyphs" textLength="61" x="361" y="75.6553">quaternion</text><line style="stroke: #A80036; stroke-width: 1.5;" x1="327.5" x2="428.5" y1="87" y2="87"/><ellipse cx="337.5" cy="99.99" fill="none" rx="3" ry="3" style="stroke: #038048; stroke-width: 1.0;"/><text fill="#000000" font-family="sans-serif" font-size="11" lengthAdjust="spacingAndGlyphs" textLength="77" x="346.5" y="102.7573">a,b,c,d: double</text><line style="stroke: #A80036; stroke-width: 1.5;" x1="327.5" x2="428.5" y1="109.98" y2="109.98"/></a><!--class rotation--><a target="_top" xlink:href="/files/doc/rotation_index.html" xlink:title="/files/doc/rotation_index.html"><rect fill="#FEFECE" filter="url(#fgxu5u5)" height="77.96" style="stroke: #A80036; stroke-width: 1.5;" width="138" x="989" y="47.5"/><ellipse cx="1031.9" cy="63.5" fill="#ADD1B2" rx="11" ry="11" style="stroke: #A80036; stroke-width: 1.0;"/><path d="M1029.8063,63.3438 Q1029.8063,65.2188 1030.3844,66.2266 Q1030.9625,67.2344 1032.1188,67.2344 Q1033.4625,67.2344 1034.1188,65.2188 L1036.3844,65.6406 Q1035.275,69.1719 1032.1031,69.1719 Q1029.7594,69.1719 1028.5406,67.6875 Q1027.3219,66.2031 1027.3219,63.3438 Q1027.3219,57.625 1032.025,57.625 Q1033.5719,57.625 1034.6109,58.4375 Q1035.65,59.25 1036.15,60.8594 L1033.8844,61.4063 Q1033.65,60.5313 1033.1656,60.0391 Q1032.6813,59.5469 1032.0563,59.5469 Q1029.8063,59.5469 1029.8063,63.3438 Z "/><text fill="#000000" font-family="sans-serif" font-size="12" lengthAdjust="spacingAndGlyphs" textLength="44" x="1052.1" y="68.1553">rotation</text><line style="stroke: #A80036; stroke-width: 1.5;" x1="990" x2="1126" y1="79.5" y2="79.5"/><ellipse cx="1000" cy="92.49" fill="none" rx="3" ry="3" style="stroke: #038048; stroke-width: 1.0;"/><text fill="#000000" font-family="sans-serif" font-size="11" lengthAdjust="spacingAndGlyphs" textLength="43" x="1009" y="95.2573">i: logical</text><rect fill="none" height="6" style="stroke: #C82930; stroke-width: 1.0;" width="6" x="997" y="104.47"/><text fill="#000000" font-family="sans-serif" font-size="11" lengthAdjust="spacingAndGlyphs" textLength="112" x="1009" y="110.2373">phi1,Phi,phi2: double</text><line style="stroke: #A80036; stroke-width: 1.5;" x1="990" x2="1126" y1="117.46" y2="117.46"/></a><!--class orientation--><a target="_top" xlink:href="/files/doc/orientation_index.html" xlink:title="/files/doc/orientation_index.html"><rect fill="#FEFECE" filter="url(#fgxu5u5)" height="92.9399" style="stroke: #A80036; stroke-width: 1.5;" width="146" x="1687" y="40"/><ellipse cx="1725.85" cy="56" fill="#ADD1B2" rx="11" ry="11" style="stroke: #A80036; stroke-width: 1.0;"/><path d="M1723.7563,55.8438 Q1723.7563,57.7188 1724.3344,58.7266 Q1724.9125,59.7344 1726.0688,59.7344 Q1727.4125,59.7344 1728.0688,57.7188 L1730.3344,58.1406 Q1729.225,61.6719 1726.0531,61.6719 Q1723.7094,61.6719 1722.4906,60.1875 Q1721.2719,58.7031 1721.2719,55.8438 Q1721.2719,50.125 1725.975,50.125 Q1727.5219,50.125 1728.5609,50.9375 Q1729.6,51.75 1730.1,53.3594 L1727.8344,53.9063 Q1727.6,53.0313 1727.1156,52.5391 Q1726.6313,52.0469 1726.0063,52.0469 Q1723.7563,52.0469 1723.7563,55.8438 Z "/><text fill="#000000" font-family="sans-serif" font-size="12" lengthAdjust="spacingAndGlyphs" textLength="61" x="1745.15" y="60.6553">orientation</text><line style="stroke: #A80036; stroke-width: 1.5;" x1="1688" x2="1832" y1="72" y2="72"/><ellipse cx="1698" cy="84.99" fill="none" rx="3" ry="3" style="stroke: #038048; stroke-width: 1.0;"/><text fill="#000000" font-family="sans-serif" font-size="11" lengthAdjust="spacingAndGlyphs" textLength="106" x="1707" y="87.7573">CS: crystalSymmetry</text><ellipse cx="1698" cy="99.97" fill="none" rx="3" ry="3" style="stroke: #038048; stroke-width: 1.0;"/><text fill="#000000" font-family="sans-serif" font-size="11" lengthAdjust="spacingAndGlyphs" textLength="120" x="1707" y="102.7373">SS: specimenSymmetry</text><ellipse cx="1698" cy="114.95" fill="none" rx="3" ry="3" style="stroke: #038048; stroke-width: 1.0;"/><text fill="#000000" font-family="sans-serif" font-size="11" lengthAdjust="spacingAndGlyphs" textLength="90" x="1707" y="117.7173">antipodal: logical</text><line style="stroke: #A80036; stroke-width: 1.5;" x1="1688" x2="1832" y1="124.9399" y2="124.9399"/></a><!--class vector3d--><a target="_top" xlink:href="/files/doc/vector3d_index.html" xlink:title="/files/doc/vector3d_index.html"><rect fill="#FEFECE" filter="url(#fgxu5u5)" height="77.96" style="stroke: #A80036; stroke-width: 1.5;" width="116" x="366" y="629.5"/><ellipse cx="396.75" cy="645.5" fill="#ADD1B2" rx="11" ry="11" style="stroke: #A80036; stroke-width: 1.0;"/><path d="M394.6563,645.3438 Q394.6563,647.2188 395.2344,648.2266 Q395.8125,649.2344 396.9688,649.2344 Q398.3125,649.2344 398.9688,647.2188 L401.2344,647.6406 Q400.125,651.1719 396.9531,651.1719 Q394.6094,651.1719 393.3906,649.6875 Q392.1719,648.2031 392.1719,645.3438 Q392.1719,639.625 396.875,639.625 Q398.4219,639.625 399.4609,640.4375 Q400.5,641.25 401,642.8594 L398.7344,643.4063 Q398.5,642.5313 398.0156,642.0391 Q397.5313,641.5469 396.9063,641.5469 Q394.6563,641.5469 394.6563,645.3438 Z "/><text fill="#000000" font-family="sans-serif" font-size="12" lengthAdjust="spacingAndGlyphs" textLength="49" x="414.25" y="650.1553">vector3d</text><line style="stroke: #A80036; stroke-width: 1.5;" x1="367" x2="481" y1="661.5" y2="661.5"/><ellipse cx="377" cy="674.49" fill="none" rx="3" ry="3" style="stroke: #038048; stroke-width: 1.0;"/><text fill="#000000" font-family="sans-serif" font-size="11" lengthAdjust="spacingAndGlyphs" textLength="66" x="386" y="677.2573">x,y,z: double</text><ellipse cx="377" cy="689.47" fill="none" rx="3" ry="3" style="stroke: #038048; stroke-width: 1.0;"/><text fill="#000000" font-family="sans-serif" font-size="11" lengthAdjust="spacingAndGlyphs" textLength="90" x="386" y="692.2373">antipodal: logical</text><line style="stroke: #A80036; stroke-width: 1.5;" x1="367" x2="481" y1="699.46" y2="699.46"/></a><!--class Miller--><rect fill="#FEFECE" filter="url(#fgxu5u5)" height="92.9399" style="stroke: #A80036; stroke-width: 1.5;" width="132" x="552" y="622"/><ellipse cx="597.75" cy="638" fill="#ADD1B2" rx="11" ry="11" style="stroke: #A80036; stroke-width: 1.0;"/><path d="M595.6563,637.8438 Q595.6563,639.7188 596.2344,640.7266 Q596.8125,641.7344 597.9688,641.7344 Q599.3125,641.7344 599.9688,639.7188 L602.2344,640.1406 Q601.125,643.6719 597.9531,643.6719 Q595.6094,643.6719 594.3906,642.1875 Q593.1719,640.7031 593.1719,637.8438 Q593.1719,632.125 597.875,632.125 Q599.4219,632.125 600.4609,632.9375 Q601.5,633.75 602,635.3594 L599.7344,635.9063 Q599.5,635.0313 599.0156,634.5391 Q598.5313,634.0469 597.9063,634.0469 Q595.6563,634.0469 595.6563,637.8438 Z "/><text fill="#000000" font-family="sans-serif" font-size="12" lengthAdjust="spacingAndGlyphs" textLength="32" x="618.25" y="642.6553">Miller</text><line style="stroke: #A80036; stroke-width: 1.5;" x1="553" x2="683" y1="654" y2="654"/><ellipse cx="563" cy="666.99" fill="none" rx="3" ry="3" style="stroke: #038048; stroke-width: 1.0;"/><a target="_top" xlink:href="crystalSymmetry_index.html" xlink:title="crystalSymmetry_index.html"><text fill="#000000" font-family="sans-serif" font-size="11" lengthAdjust="spacingAndGlyphs" textLength="106" x="572" y="669.7573">CS: crystalSymmetry</text></a><rect fill="none" height="6" style="stroke: #C82930; stroke-width: 1.0;" width="6" x="560" y="678.97"/><text fill="#000000" font-family="sans-serif" font-size="11" lengthAdjust="spacingAndGlyphs" textLength="65" x="572" y="684.7373">h,k,l: double</text><rect fill="none" height="6" style="stroke: #C82930; stroke-width: 1.0;" width="6" x="560" y="693.95"/><text fill="#000000" font-family="sans-serif" font-size="11" lengthAdjust="spacingAndGlyphs" textLength="71" x="572" y="699.7173">u,v,w: double</text><line style="stroke: #A80036; stroke-width: 1.5;" x1="553" x2="683" y1="706.9399" y2="706.9399"/><!--class slipSystem--><a target="_top" xlink:href="/files/doc/slipSystem_index.html" xlink:title="/files/doc/slipSystem_index.html"><rect fill="#FEFECE" filter="url(#fgxu5u5)" height="107.9199" style="stroke: #A80036; stroke-width: 1.5;" width="132" x="7" y="435"/><ellipse cx="40" cy="451" fill="#ADD1B2" rx="11" ry="11" style="stroke: #A80036; stroke-width: 1.0;"/><path d="M37.9063,450.8438 Q37.9063,452.7188 38.4844,453.7266 Q39.0625,454.7344 40.2188,454.7344 Q41.5625,454.7344 42.2188,452.7188 L44.4844,453.1406 Q43.375,456.6719 40.2031,456.6719 Q37.8594,456.6719 36.6406,455.1875 Q35.4219,453.7031 35.4219,450.8438 Q35.4219,445.125 40.125,445.125 Q41.6719,445.125 42.7109,445.9375 Q43.75,446.75 44.25,448.3594 L41.9844,448.9063 Q41.75,448.0313 41.2656,447.5391 Q40.7813,447.0469 40.1563,447.0469 Q37.9063,447.0469 37.9063,450.8438 Z "/><text fill="#000000" font-family="sans-serif" font-size="12" lengthAdjust="spacingAndGlyphs" textLength="60" x="58" y="455.6553">slipSystem</text><line style="stroke: #A80036; stroke-width: 1.5;" x1="8" x2="138" y1="467" y2="467"/><ellipse cx="18" cy="479.99" fill="none" rx="3" ry="3" style="stroke: #038048; stroke-width: 1.0;"/></a><a target="_top" xlink:href="/files/doc/Miller_index.html" xlink:title="/files/doc/Miller_index.html"><text fill="#000000" font-family="sans-serif" font-size="11" lengthAdjust="spacingAndGlyphs" textLength="43" x="27" y="482.7573">b: Miller</text></a><ellipse cx="18" cy="494.97" fill="none" rx="3" ry="3" style="stroke: #038048; stroke-width: 1.0;"/><a target="_top" xlink:href="/files/doc/Miller_index.html" xlink:title="/files/doc/Miller_index.html"><text fill="#000000" font-family="sans-serif" font-size="11" lengthAdjust="spacingAndGlyphs" textLength="43" x="27" y="497.7373">n: Miller</text></a><ellipse cx="18" cy="509.95" fill="none" rx="3" ry="3" style="stroke: #038048; stroke-width: 1.0;"/><text fill="#000000" font-family="sans-serif" font-size="11" lengthAdjust="spacingAndGlyphs" textLength="69" x="27" y="512.7173">CRSS: double</text><rect fill="none" height="6" style="stroke: #C82930; stroke-width: 1.0;" width="6" x="15" y="521.9299"/><text fill="#000000" font-family="sans-serif" font-size="11" lengthAdjust="spacingAndGlyphs" textLength="106" x="27" y="527.6973">CS: crystalSymmetry</text><line style="stroke: #A80036; stroke-width: 1.5;" x1="8" x2="138" y1="534.9199" y2="534.9199"/><!--class fibre--><a target="_top" xlink:href="/files/doc/fibre_index.html" xlink:title="/files/doc/fibre_index.html"><rect fill="#FEFECE" filter="url(#fgxu5u5)" height="137.8799" style="stroke: #A80036; stroke-width: 1.5;" width="146" x="1687" y="216"/><ellipse cx="1742.75" cy="232" fill="#ADD1B2" rx="11" ry="11" style="stroke: #A80036; stroke-width: 1.0;"/><path d="M1740.6563,231.8438 Q1740.6563,233.7188 1741.2344,234.7266 Q1741.8125,235.7344 1742.9688,235.7344 Q1744.3125,235.7344 1744.9688,233.7188 L1747.2344,234.1406 Q1746.125,237.6719 1742.9531,237.6719 Q1740.6094,237.6719 1739.3906,236.1875 Q1738.1719,234.7031 1738.1719,231.8438 Q1738.1719,226.125 1742.875,226.125 Q1744.4219,226.125 1745.4609,226.9375 Q1746.5,227.75 1747,229.3594 L1744.7344,229.9063 Q1744.5,229.0313 1744.0156,228.5391 Q1743.5313,228.0469 1742.9063,228.0469 Q1740.6563,228.0469 1740.6563,231.8438 Z "/><text fill="#000000" font-family="sans-serif" font-size="12" lengthAdjust="spacingAndGlyphs" textLength="26" x="1763.25" y="236.6553">fibre</text><line style="stroke: #A80036; stroke-width: 1.5;" x1="1688" x2="1832" y1="248" y2="248"/><ellipse cx="1698" cy="260.99" fill="none" rx="3" ry="3" style="stroke: #038048; stroke-width: 1.0;"/><text fill="#000000" font-family="sans-serif" font-size="11" lengthAdjust="spacingAndGlyphs" textLength="78" x="1707" y="263.7573">o1: orientation</text><ellipse cx="1698" cy="275.97" fill="none" rx="3" ry="3" style="stroke: #038048; stroke-width: 1.0;"/><text fill="#000000" font-family="sans-serif" font-size="11" lengthAdjust="spacingAndGlyphs" textLength="78" x="1707" y="278.7373">o2: orientation</text><ellipse cx="1698" cy="290.95" fill="none" rx="3" ry="3" style="stroke: #038048; stroke-width: 1.0;"/><text fill="#000000" font-family="sans-serif" font-size="11" lengthAdjust="spacingAndGlyphs" textLength="43" x="1707" y="293.7173">h: Miller</text><rect fill="none" height="6" style="stroke: #C82930; stroke-width: 1.0;" width="6" x="1695" y="302.9299"/><text fill="#000000" font-family="sans-serif" font-size="11" lengthAdjust="spacingAndGlyphs" textLength="57" x="1707" y="308.6973">r: vector3d</text><rect fill="none" height="6" style="stroke: #C82930; stroke-width: 1.0;" width="6" x="1695" y="317.9099"/><text fill="#000000" font-family="sans-serif" font-size="11" lengthAdjust="spacingAndGlyphs" textLength="106" x="1707" y="323.6772">CS: crystalSymmetry</text><rect fill="none" height="6" style="stroke: #C82930; stroke-width: 1.0;" width="6" x="1695" y="332.8899"/><text fill="#000000" font-family="sans-serif" font-size="11" lengthAdjust="spacingAndGlyphs" textLength="120" x="1707" y="338.6572">SS: specimenSymmetry</text><line style="stroke: #A80036; stroke-width: 1.5;" x1="1688" x2="1832" y1="345.8799" y2="345.8799"/></a><!--class S2Grid--><rect fill="#FEFECE" filter="url(#fgxu5u5)" height="62.98" style="stroke: #A80036; stroke-width: 1.5;" width="123" x="173.5" y="637"/><ellipse cx="212.35" cy="653" fill="#ADD1B2" rx="11" ry="11" style="stroke: #A80036; stroke-width: 1.0;"/><path d="M210.2563,652.8438 Q210.2563,654.7188 210.8344,655.7266 Q211.4125,656.7344 212.5688,656.7344 Q213.9125,656.7344 214.5688,654.7188 L216.8344,655.1406 Q215.725,658.6719 212.5531,658.6719 Q210.2094,658.6719 208.9906,657.1875 Q207.7719,655.7031 207.7719,652.8438 Q207.7719,647.125 212.475,647.125 Q214.0219,647.125 215.0609,647.9375 Q216.1,648.75 216.6,650.3594 L214.3344,650.9063 Q214.1,650.0313 213.6156,649.5391 Q213.1313,649.0469 212.5063,649.0469 Q210.2563,649.0469 210.2563,652.8438 Z "/><text fill="#000000" font-family="sans-serif" font-size="12" lengthAdjust="spacingAndGlyphs" textLength="38" x="231.65" y="657.6553">S2Grid</text><line style="stroke: #A80036; stroke-width: 1.5;" x1="174.5" x2="295.5" y1="669" y2="669"/><ellipse cx="184.5" cy="681.99" fill="none" rx="3" ry="3" style="stroke: #038048; stroke-width: 1.0;"/><text fill="#000000" font-family="sans-serif" font-size="11" lengthAdjust="spacingAndGlyphs" textLength="97" x="193.5" y="684.7573">resolution: double</text><line style="stroke: #A80036; stroke-width: 1.5;" x1="174.5" x2="295.5" y1="691.98" y2="691.98"/><!--class SO3Grid--><rect fill="#FEFECE" filter="url(#fgxu5u5)" height="62.98" style="stroke: #A80036; stroke-width: 1.5;" width="123" x="1530.5" y="457.5"/><ellipse cx="1565.3" cy="473.5" fill="#ADD1B2" rx="11" ry="11" style="stroke: #A80036; stroke-width: 1.0;"/><path d="M1563.2063,473.3438 Q1563.2063,475.2188 1563.7844,476.2266 Q1564.3625,477.2344 1565.5188,477.2344 Q1566.8625,477.2344 1567.5188,475.2188 L1569.7844,475.6406 Q1568.675,479.1719 1565.5031,479.1719 Q1563.1594,479.1719 1561.9406,477.6875 Q1560.7219,476.2031 1560.7219,473.3438 Q1560.7219,467.625 1565.425,467.625 Q1566.9719,467.625 1568.0109,468.4375 Q1569.05,469.25 1569.55,470.8594 L1567.2844,471.4063 Q1567.05,470.5313 1566.5656,470.0391 Q1566.0813,469.5469 1565.4563,469.5469 Q1563.2063,469.5469 1563.2063,473.3438 Z "/><text fill="#000000" font-family="sans-serif" font-size="12" lengthAdjust="spacingAndGlyphs" textLength="47" x="1583.7" y="478.1553">SO3Grid</text><line style="stroke: #A80036; stroke-width: 1.5;" x1="1531.5" x2="1652.5" y1="489.5" y2="489.5"/><ellipse cx="1541.5" cy="502.49" fill="none" rx="3" ry="3" style="stroke: #038048; stroke-width: 1.0;"/><text fill="#000000" font-family="sans-serif" font-size="11" lengthAdjust="spacingAndGlyphs" textLength="97" x="1550.5" y="505.2573">resolution: double</text><line style="stroke: #A80036; stroke-width: 1.5;" x1="1531.5" x2="1652.5" y1="512.48" y2="512.48"/><!--class sphericalRegion--><a target="_top" xlink:href="/files/doc/sphericalRegion_index.html" xlink:title="/files/doc/sphericalRegion_index.html"><rect fill="#FEFECE" filter="url(#fgxu5u5)" height="92.9399" style="stroke: #A80036; stroke-width: 1.5;" width="121" x="174.5" y="442.5"/><ellipse cx="189.5" cy="458.5" fill="#ADD1B2" rx="11" ry="11" style="stroke: #A80036; stroke-width: 1.0;"/><path d="M187.4063,458.3438 Q187.4063,460.2188 187.9844,461.2266 Q188.5625,462.2344 189.7188,462.2344 Q191.0625,462.2344 191.7188,460.2188 L193.9844,460.6406 Q192.875,464.1719 189.7031,464.1719 Q187.3594,464.1719 186.1406,462.6875 Q184.9219,461.2031 184.9219,458.3438 Q184.9219,452.625 189.625,452.625 Q191.1719,452.625 192.2109,453.4375 Q193.25,454.25 193.75,455.8594 L191.4844,456.4063 Q191.25,455.5313 190.7656,455.0391 Q190.2813,454.5469 189.6563,454.5469 Q187.4063,454.5469 187.4063,458.3438 Z "/><text fill="#000000" font-family="sans-serif" font-size="12" lengthAdjust="spacingAndGlyphs" textLength="89" x="203.5" y="463.1553">sphericalRegion</text><line style="stroke: #A80036; stroke-width: 1.5;" x1="175.5" x2="294.5" y1="474.5" y2="474.5"/><ellipse cx="185.5" cy="487.49" fill="none" rx="3" ry="3" style="stroke: #038048; stroke-width: 1.0;"/><text fill="#000000" font-family="sans-serif" font-size="11" lengthAdjust="spacingAndGlyphs" textLength="60" x="194.5" y="490.2573">N: vector3d</text><ellipse cx="185.5" cy="502.47" fill="none" rx="3" ry="3" style="stroke: #038048; stroke-width: 1.0;"/><text fill="#000000" font-family="sans-serif" font-size="11" lengthAdjust="spacingAndGlyphs" textLength="72" x="194.5" y="505.2373">alpha: double</text><ellipse cx="185.5" cy="517.45" fill="none" rx="3" ry="3" style="stroke: #038048; stroke-width: 1.0;"/><text fill="#000000" font-family="sans-serif" font-size="11" lengthAdjust="spacingAndGlyphs" textLength="90" x="194.5" y="520.2173">antipodal: logical</text><line style="stroke: #A80036; stroke-width: 1.5;" x1="175.5" x2="294.5" y1="527.4399" y2="527.4399"/></a><!--class orientationRegion--><a target="_top" xlink:href="/files/doc/orientationRegion_index.html" xlink:title="/files/doc/orientationRegion_index.html"><rect fill="#FEFECE" filter="url(#fgxu5u5)" height="107.9199" style="stroke: #A80036; stroke-width: 1.5;" width="131" x="1224.5" y="435"/><ellipse cx="1239.5" cy="451" fill="#ADD1B2" rx="11" ry="11" style="stroke: #A80036; stroke-width: 1.0;"/><path d="M1237.4063,450.8438 Q1237.4063,452.7188 1237.9844,453.7266 Q1238.5625,454.7344 1239.7188,454.7344 Q1241.0625,454.7344 1241.7188,452.7188 L1243.9844,453.1406 Q1242.875,456.6719 1239.7031,456.6719 Q1237.3594,456.6719 1236.1406,455.1875 Q1234.9219,453.7031 1234.9219,450.8438 Q1234.9219,445.125 1239.625,445.125 Q1241.1719,445.125 1242.2109,445.9375 Q1243.25,446.75 1243.75,448.3594 L1241.4844,448.9063 Q1241.25,448.0313 1240.7656,447.5391 Q1240.2813,447.0469 1239.6563,447.0469 Q1237.4063,447.0469 1237.4063,450.8438 Z "/><text fill="#000000" font-family="sans-serif" font-size="12" lengthAdjust="spacingAndGlyphs" textLength="99" x="1253.5" y="455.6553">orientationRegion</text><line style="stroke: #A80036; stroke-width: 1.5;" x1="1225.5" x2="1354.5" y1="467" y2="467"/><ellipse cx="1235.5" cy="479.99" fill="none" rx="3" ry="3" style="stroke: #038048; stroke-width: 1.0;"/><text fill="#000000" font-family="sans-serif" font-size="11" lengthAdjust="spacingAndGlyphs" textLength="73" x="1244.5" y="482.7573">N: orientation</text><ellipse cx="1235.5" cy="494.97" fill="none" rx="3" ry="3" style="stroke: #038048; stroke-width: 1.0;"/><text fill="#000000" font-family="sans-serif" font-size="11" lengthAdjust="spacingAndGlyphs" textLength="72" x="1244.5" y="497.7373">V: orientation</text><ellipse cx="1235.5" cy="509.95" fill="none" rx="3" ry="3" style="stroke: #038048; stroke-width: 1.0;"/><text fill="#000000" font-family="sans-serif" font-size="11" lengthAdjust="spacingAndGlyphs" textLength="9" x="1244.5" y="512.7173">F:</text><ellipse cx="1235.5" cy="524.9299" fill="none" rx="3" ry="3" style="stroke: #038048; stroke-width: 1.0;"/><text fill="#000000" font-family="sans-serif" font-size="11" lengthAdjust="spacingAndGlyphs" textLength="90" x="1244.5" y="527.6973">antipodal: logical</text><line style="stroke: #A80036; stroke-width: 1.5;" x1="1225.5" x2="1354.5" y1="534.9199" y2="534.9199"/></a><path d="M450.0019,86.5 C629.6624,86.5 809.323,86.5 988.9835,86.5 " fill="none" style="stroke: #A80036; stroke-width: 1.0;"/><polygon fill="none" points="449.7969,93.4999,429.7969,86.5,449.7968,79.4999,449.7969,93.4999" style="stroke: #A80036; stroke-width: 1.0;"/><path d="M1147.4578,86.5 C1327.2303,86.5 1507.0028,86.5 1686.7754,86.5 " fill="none" style="stroke: #A80036; stroke-width: 1.0;"/><polygon fill="none" points="1147.2403,93.4999,1127.2402,86.5,1147.2402,79.4999,1147.2403,93.4999" style="stroke: #A80036; stroke-width: 1.0;"/><path d="M1010.8981,140.8588 C988.8127,166.347 962.3911,196.8393 939.5489,223.2009 " fill="none" style="stroke: #A80036; stroke-width: 1.0;"/><polygon fill="none" points="1005.6309,136.2483,1024.0183,125.7172,1016.2114,145.4163,1005.6309,136.2483" style="stroke: #A80036; stroke-width: 1.0;"/><path d="M968.9174,285 C1148.7731,285 1328.6288,285 1508.4845,285 " fill="none" style="stroke: #A80036; stroke-width: 1.0;"/><polygon fill="none" points="968.6905,291.9999,948.6904,285,968.6904,277.9999,968.6905,291.9999" style="stroke: #A80036; stroke-width: 1.0;"/><path d="M263.6904,285 C443.5204,285 623.3504,285 803.1804,285 " fill="none" style="stroke: #A80036; stroke-width: 1.0;"/><polygon fill="none" points="803.4044,277.9999,823.4044,285,803.4044,291.9999,803.4044,277.9999" style="stroke: #A80036; stroke-width: 1.0;"/><path d="M502.4165,668.5 C518.8661,668.5 535.3158,668.5 551.7654,668.5 " fill="none" style="stroke: #A80036; stroke-width: 1.0;"/><polygon fill="none" points="502.3516,675.4999,482.3516,668.5,502.3515,661.4999,502.3516,675.4999" style="stroke: #A80036; stroke-width: 1.0;"/><path d="M179.4386,354.0651 C190.7299,381.487 203.4862,412.4665 213.9257,437.8195 " fill="none" style="stroke: #A80036; stroke-width: 1.0;"/><polygon fill="#A80036" points="215.8471,442.4859,216.1189,432.6408,213.9433,437.8625,208.7215,435.6869,215.8471,442.4859" style="stroke: #A80036; stroke-width: 1.0;"/><text fill="#000000" font-family="sans-serif" font-size="13" lengthAdjust="spacingAndGlyphs" textLength="123" x="200" y="400.895">fundamentalSector()</text><polygon fill="#000000" points="257,410.7036,260,416.7036,263,410.7036,257,410.7036" style="stroke: #000000; stroke-width: 1.0;"/><path d="M263.5902,305.1654 C496.9715,346.965 1027.6797,442.0173 1219.3174,476.3404 " fill="none" style="stroke: #A80036; stroke-width: 1.0;"/><polygon fill="#A80036" points="1224.3347,477.2391,1216.1809,471.7149,1219.413,476.3575,1214.7704,479.5896,1224.3347,477.2391" style="stroke: #A80036; stroke-width: 1.0;"/><text fill="#000000" font-family="sans-serif" font-size="13" lengthAdjust="spacingAndGlyphs" textLength="127" x="790" y="400.895">fundamentalRegion()</text><polygon fill="#000000" points="920,394.3518,926,397.3518,920,400.3518,920,394.3518" style="stroke: #000000; stroke-width: 1.0;"/><path d="M92.3588,354.2846 C86.1886,364.4187 80.7939,375.1217 77,386 C72.2239,399.6947 70.071,415.0418 69.359,429.6224 " fill="none" style="stroke: #A80036; stroke-width: 1.0;"/><polygon fill="#A80036" points="69.1597,434.955,73.4933,426.1108,69.3466,429.9585,65.4988,425.8118,69.1597,434.955" style="stroke: #A80036; stroke-width: 1.0;"/><text fill="#000000" font-family="sans-serif" font-size="13" lengthAdjust="spacingAndGlyphs" textLength="94" x="78" y="400.895">fcc(), bcc(), hcp()</text><polygon fill="#000000" points="120.5,410.7036,123.5,416.7036,126.5,410.7036,120.5,410.7036" style="stroke: #000000; stroke-width: 1.0;"/><path d="M235,535.6929 C235,565.6168 235,603.9096 235,631.6813 " fill="none" style="stroke: #A80036; stroke-width: 1.0;"/><polygon fill="#A80036" points="235,636.74,239,627.74,235,631.74,231,627.74,235,636.74" style="stroke: #A80036; stroke-width: 1.0;"/><text fill="#000000" font-family="sans-serif" font-size="13" lengthAdjust="spacingAndGlyphs" textLength="71" x="236" y="587.895">plotS2Grid()</text><polygon fill="#000000" points="267,597.7036,270,603.7036,273,597.7036,267,597.7036" style="stroke: #000000; stroke-width: 1.0;"/><path d="M1355.766,504.9462 C1368.6972,507.4664 1382.2172,509.6752 1395,511 C1437.4394,515.3983 1448.5784,515.5666 1491,511 C1502.1406,509.8007 1513.8549,507.8778 1525.2004,505.6555 " fill="none" style="stroke: #A80036; stroke-width: 1.0;"/><polygon fill="#A80036" points="1530.3839,504.6149,1520.7727,502.4646,1525.4817,505.599,1522.3473,510.3081,1530.3839,504.6149" style="stroke: #A80036; stroke-width: 1.0;"/><text fill="#000000" font-family="sans-serif" font-size="13" lengthAdjust="spacingAndGlyphs" textLength="81" x="1396" y="506.895">plotSO3Grid()</text><polygon fill="#000000" points="1480,500.3518,1486,503.3518,1480,506.3518,1480,500.3518" style="stroke: #000000; stroke-width: 1.0;"/><path d="M1355.5295,489 C1405.761,489 1474.808,489 1525.3231,489 " fill="none" style="stroke: #A80036; stroke-width: 1.0;"/><polygon fill="#A80036" points="1530.4606,489,1521.4606,485,1525.4606,489,1521.4606,493,1530.4606,489" style="stroke: #A80036; stroke-width: 1.0;"/><text fill="#000000" font-family="sans-serif" font-size="13" lengthAdjust="spacingAndGlyphs" textLength="125" x="1374" y="481.895">equispacedSO3Grid()</text><polygon fill="#000000" points="1502,475.3518,1508,478.3518,1502,481.3518,1502,475.3518" style="stroke: #000000; stroke-width: 1.0;"/><path d="M296.6465,668.5 C312.9433,668.5 329.2401,668.5 345.537,668.5 " fill="none" style="stroke: #A80036; stroke-width: 1.0;"/><polygon fill="none" points="345.7955,661.4999,365.7955,668.5,345.7954,675.4999,345.7955,661.4999" style="stroke: #A80036; stroke-width: 1.0;"/><path d="M1653.7557,481.8044 C1715.5284,470.9552 1807.44,444.0604 1851,378 C1903.1131,298.9684 1890.4212,251.0683 1851,165 C1848.3487,159.2113 1845.0364,153.6873 1841.2584,148.4471 " fill="none" style="stroke: #A80036; stroke-width: 1.0;"/><polygon fill="none" points="1835.8872,152.9362,1828.292,133.1546,1846.5655,143.8822,1835.8872,152.9362" style="stroke: #A80036; stroke-width: 1.0;"/><path d="M1760,133.0394 C1760,156.1367 1760,184.5993 1760,210.6232 " fill="none" style="stroke: #A80036; stroke-width: 1.0;"/><polygon fill="#A80036" points="1760,215.7931,1764,206.7931,1760,210.7931,1756,206.7931,1760,215.7931" style="stroke: #A80036; stroke-width: 1.0;"/><text fill="#000000" font-family="sans-serif" font-size="13" lengthAdjust="spacingAndGlyphs" textLength="68" x="1761" y="179.895">fibre(o1,o2)</text><polygon fill="#000000" points="1790.5,189.7036,1793.5,195.7036,1796.5,189.7036,1790.5,189.7036" style="stroke: #000000; stroke-width: 1.0;"/></g></svg>