<?xml version="1.0" encoding="UTF-8" standalone="yes"?><svg xmlns="http://www.w3.org/2000/svg" xmlns:xlink="http://www.w3.org/1999/xlink" height="705px" style="width:951px;height:705px;" version="1.1" viewBox="0 0 951 705" width="951px"><defs><filter height="300%" id="f88w97u" width="300%" x="-1" y="-1"><feGaussianBlur result="blurOut" stdDeviation="2.0"/><feColorMatrix in="blurOut" result="blurOut2" type="matrix" values="0 0 0 0 0 0 0 0 0 0 0 0 0 0 0 0 0 0 .4 0"/><feOffset dx="4.0" dy="4.0" in="blurOut2" result="blurOut3"/><feBlend in="SourceGraphic" in2="blurOut3" mode="normal"/></filter></defs><g><!--cluster ##4--><!--cluster ##9--><!--class symmetry--><rect fill="#FEFECE" filter="url(#f88w97u)" height="122.8999" style="stroke: #A80036; stroke-width: 1.5;" width="125" x="396.5" y="205.5"/><ellipse cx="429.05" cy="221.5" fill="#A9DCDF" rx="11" ry="11" style="stroke: #A80036; stroke-width: 1.0;"/><path d="M434.2531,226 L431.8156,226 L431.05,223.2656 L427.2688,223.2656 L426.5031,226 L424.05,226 L427.7219,214.7969 L430.5813,214.7969 L434.2531,226 Z M429.1594,216.3125 Q429.0813,216.6563 428.9094,217.3516 Q428.7375,218.0469 427.7844,221.4219 L430.5344,221.4219 Q429.5656,218 429.3938,217.3281 Q429.2219,216.6563 429.1594,216.3125 Z "/><text fill="#000000" font-family="sans-serif" font-size="12" font-style="italic" lengthAdjust="spacingAndGlyphs" textLength="54" x="446.95" y="226.1553">symmetry</text><line style="stroke: #A80036; stroke-width: 1.5;" x1="397.5" x2="520.5" y1="237.5" y2="237.5"/><ellipse cx="407.5" cy="250.49" fill="none" rx="3" ry="3" style="stroke: #038048; stroke-width: 1.0;"/><text fill="#000000" font-family="sans-serif" font-size="11" lengthAdjust="spacingAndGlyphs" textLength="54" x="416.5" y="253.2573">id: integer</text><rect fill="none" height="6" style="stroke: #C82930; stroke-width: 1.0;" width="6" x="404.5" y="262.47"/><text fill="#000000" font-family="sans-serif" font-size="11" lengthAdjust="spacingAndGlyphs" textLength="68" x="416.5" y="268.2373">lattice: string</text><rect fill="none" height="6" style="stroke: #C82930; stroke-width: 1.0;" width="6" x="404.5" y="277.45"/><text fill="#000000" font-family="sans-serif" font-size="11" lengthAdjust="spacingAndGlyphs" textLength="99" x="416.5" y="283.2173">pointGroup: string</text><rect fill="none" height="6" style="stroke: #C82930; stroke-width: 1.0;" width="6" x="404.5" y="292.4299"/><text fill="#000000" font-family="sans-serif" font-size="11" lengthAdjust="spacingAndGlyphs" textLength="73" x="416.5" y="298.1973">isLaue: logical</text><rect fill="none" height="6" style="stroke: #C82930; stroke-width: 1.0;" width="6" x="404.5" y="307.4099"/><text fill="#000000" font-family="sans-serif" font-size="11" lengthAdjust="spacingAndGlyphs" textLength="85" x="416.5" y="313.1772">isProper: logical</text><line style="stroke: #A80036; stroke-width: 1.5;" x1="397.5" x2="520.5" y1="320.3999" y2="320.3999"/><!--class crystalSymmetry--><a target="_top" xlink:href="crystalSymmetry_index.html" xlink:title="crystalSymmetry_index.html"><rect fill="#FEFECE" filter="url(#f88w97u)" height="137.8799" style="stroke: #A80036; stroke-width: 1.5;" width="225" x="101.5" y="198"/><ellipse cx="162.75" cy="214" fill="#ADD1B2" rx="11" ry="11" style="stroke: #A80036; stroke-width: 1.0;"/><path d="M160.6563,213.8438 Q160.6563,215.7188 161.2344,216.7266 Q161.8125,217.7344 162.9688,217.7344 Q164.3125,217.7344 164.9688,215.7188 L167.2344,216.1406 Q166.125,219.6719 162.9531,219.6719 Q160.6094,219.6719 159.3906,218.1875 Q158.1719,216.7031 158.1719,213.8438 Q158.1719,208.125 162.875,208.125 Q164.4219,208.125 165.4609,208.9375 Q166.5,209.75 167,211.3594 L164.7344,211.9063 Q164.5,211.0313 164.0156,210.5391 Q163.5313,210.0469 162.9063,210.0469 Q160.6563,210.0469 160.6563,213.8438 Z "/><text fill="#000000" font-family="sans-serif" font-size="12" lengthAdjust="spacingAndGlyphs" textLength="94" x="183.25" y="218.6553">crystalSymmetry</text><line style="stroke: #A80036; stroke-width: 1.5;" x1="102.5" x2="325.5" y1="230" y2="230"/><ellipse cx="112.5" cy="242.99" fill="none" rx="3" ry="3" style="stroke: #038048; stroke-width: 1.0;"/></a><a target="_top" xlink:href="/files/doc/vector3d_index.html" xlink:title="/files/doc/vector3d_index.html"><text fill="#000000" font-family="sans-serif" font-size="11" lengthAdjust="spacingAndGlyphs" textLength="75" x="121.5" y="245.7573">axes: vector3d</text></a><ellipse cx="112.5" cy="257.97" fill="none" rx="3" ry="3" style="stroke: #038048; stroke-width: 1.0;"/><text fill="#000000" font-family="sans-serif" font-size="11" lengthAdjust="spacingAndGlyphs" textLength="77" x="121.5" y="260.7373">mineral: string</text><ellipse cx="112.5" cy="272.95" fill="none" rx="3" ry="3" style="stroke: #038048; stroke-width: 1.0;"/><text fill="#000000" font-family="sans-serif" font-size="11" lengthAdjust="spacingAndGlyphs" textLength="55" x="121.5" y="275.7173">color: RGB</text><ellipse cx="112.5" cy="287.9299" fill="none" rx="3" ry="3" style="stroke: #038048; stroke-width: 1.0;"/><text fill="#000000" font-family="sans-serif" font-size="11" lengthAdjust="spacingAndGlyphs" textLength="146" x="121.5" y="290.6973">alpha, beta, gamma: double</text><ellipse cx="112.5" cy="302.9099" fill="none" rx="3" ry="3" style="stroke: #038048; stroke-width: 1.0;"/><a target="_top" xlink:href="/files/doc/vector3d_index.html" xlink:title="/files/doc/vector3d_index.html"><text fill="#000000" font-family="sans-serif" font-size="11" lengthAdjust="spacingAndGlyphs" textLength="145" x="121.5" y="305.6772">aAxis, bAxis, cAxis: vector3d</text></a><ellipse cx="112.5" cy="317.8899" fill="none" rx="3" ry="3" style="stroke: #038048; stroke-width: 1.0;"/><a target="_top" xlink:href="/files/doc/vector3d_index.html" xlink:title="/files/doc/vector3d_index.html"><text fill="#000000" font-family="sans-serif" font-size="11" lengthAdjust="spacingAndGlyphs" textLength="199" x="121.5" y="320.6572">aAxisRec, bAxisRec, cAxisRec: vector3d</text></a><line style="stroke: #A80036; stroke-width: 1.5;" x1="102.5" x2="325.5" y1="327.8799" y2="327.8799"/><!--class specimenSymmetry--><rect fill="#FEFECE" filter="url(#f88w97u)" height="48" style="stroke: #A80036; stroke-width: 1.5;" width="143" x="591.5" y="243"/><ellipse cx="606.5" cy="259" fill="#ADD1B2" rx="11" ry="11" style="stroke: #A80036; stroke-width: 1.0;"/><path d="M604.4063,258.8438 Q604.4063,260.7188 604.9844,261.7266 Q605.5625,262.7344 606.7188,262.7344 Q608.0625,262.7344 608.7188,260.7188 L610.9844,261.1406 Q609.875,264.6719 606.7031,264.6719 Q604.3594,264.6719 603.1406,263.1875 Q601.9219,261.7031 601.9219,258.8438 Q601.9219,253.125 606.625,253.125 Q608.1719,253.125 609.2109,253.9375 Q610.25,254.75 610.75,256.3594 L608.4844,256.9063 Q608.25,256.0313 607.7656,255.5391 Q607.2813,255.0469 606.6563,255.0469 Q604.4063,255.0469 604.4063,258.8438 Z "/><text fill="#000000" font-family="sans-serif" font-size="12" lengthAdjust="spacingAndGlyphs" textLength="111" x="620.5" y="263.6553">specimenSymmetry</text><line style="stroke: #A80036; stroke-width: 1.5;" x1="592.5" x2="733.5" y1="275" y2="275"/><line style="stroke: #A80036; stroke-width: 1.5;" x1="592.5" x2="733.5" y1="283" y2="283"/><!--class quaternion--><a target="_top" xlink:href="/files/doc/quaternion_index.html" xlink:title="/files/doc/quaternion_index.html"><rect fill="#FEFECE" filter="url(#f88w97u)" height="62.98" style="stroke: #A80036; stroke-width: 1.5;" width="103" x="276.5" y="55"/><ellipse cx="296" cy="71" fill="#ADD1B2" rx="11" ry="11" style="stroke: #A80036; stroke-width: 1.0;"/><path d="M293.9063,70.8438 Q293.9063,72.7188 294.4844,73.7266 Q295.0625,74.7344 296.2188,74.7344 Q297.5625,74.7344 298.2188,72.7188 L300.4844,73.1406 Q299.375,76.6719 296.2031,76.6719 Q293.8594,76.6719 292.6406,75.1875 Q291.4219,73.7031 291.4219,70.8438 Q291.4219,65.125 296.125,65.125 Q297.6719,65.125 298.7109,65.9375 Q299.75,66.75 300.25,68.3594 L297.9844,68.9063 Q297.75,68.0313 297.2656,67.5391 Q296.7813,67.0469 296.1563,67.0469 Q293.9063,67.0469 293.9063,70.8438 Z "/><text fill="#000000" font-family="sans-serif" font-size="12" lengthAdjust="spacingAndGlyphs" textLength="61" x="311" y="75.6553">quaternion</text><line style="stroke: #A80036; stroke-width: 1.5;" x1="277.5" x2="378.5" y1="87" y2="87"/><ellipse cx="287.5" cy="99.99" fill="none" rx="3" ry="3" style="stroke: #038048; stroke-width: 1.0;"/><text fill="#000000" font-family="sans-serif" font-size="11" lengthAdjust="spacingAndGlyphs" textLength="77" x="296.5" y="102.7573">a,b,c,d: double</text><line style="stroke: #A80036; stroke-width: 1.5;" x1="277.5" x2="378.5" y1="109.98" y2="109.98"/></a><!--class rotation--><a target="_top" xlink:href="/files/doc/rotation_index.html" xlink:title="/files/doc/rotation_index.html"><rect fill="#FEFECE" filter="url(#f88w97u)" height="77.96" style="stroke: #A80036; stroke-width: 1.5;" width="138" x="449" y="47.5"/><ellipse cx="491.9" cy="63.5" fill="#ADD1B2" rx="11" ry="11" style="stroke: #A80036; stroke-width: 1.0;"/><path d="M489.8063,63.3438 Q489.8063,65.2188 490.3844,66.2266 Q490.9625,67.2344 492.1188,67.2344 Q493.4625,67.2344 494.1188,65.2188 L496.3844,65.6406 Q495.275,69.1719 492.1031,69.1719 Q489.7594,69.1719 488.5406,67.6875 Q487.3219,66.2031 487.3219,63.3438 Q487.3219,57.625 492.025,57.625 Q493.5719,57.625 494.6109,58.4375 Q495.65,59.25 496.15,60.8594 L493.8844,61.4063 Q493.65,60.5313 493.1656,60.0391 Q492.6813,59.5469 492.0563,59.5469 Q489.8063,59.5469 489.8063,63.3438 Z "/><text fill="#000000" font-family="sans-serif" font-size="12" lengthAdjust="spacingAndGlyphs" textLength="44" x="512.1" y="68.1553">rotation</text><line style="stroke: #A80036; stroke-width: 1.5;" x1="450" x2="586" y1="79.5" y2="79.5"/><ellipse cx="460" cy="92.49" fill="none" rx="3" ry="3" style="stroke: #038048; stroke-width: 1.0;"/><text fill="#000000" font-family="sans-serif" font-size="11" lengthAdjust="spacingAndGlyphs" textLength="43" x="469" y="95.2573">i: logical</text><rect fill="none" height="6" style="stroke: #C82930; stroke-width: 1.0;" width="6" x="457" y="104.47"/><text fill="#000000" font-family="sans-serif" font-size="11" lengthAdjust="spacingAndGlyphs" textLength="112" x="469" y="110.2373">phi1,Phi,phi2: double</text><line style="stroke: #A80036; stroke-width: 1.5;" x1="450" x2="586" y1="117.46" y2="117.46"/></a><!--class orientation--><a target="_top" xlink:href="/files/doc/orientation_index.html" xlink:title="/files/doc/orientation_index.html"><rect fill="#FEFECE" filter="url(#f88w97u)" height="92.9399" style="stroke: #A80036; stroke-width: 1.5;" width="146" x="657" y="40"/><ellipse cx="695.85" cy="56" fill="#ADD1B2" rx="11" ry="11" style="stroke: #A80036; stroke-width: 1.0;"/><path d="M693.7563,55.8438 Q693.7563,57.7188 694.3344,58.7266 Q694.9125,59.7344 696.0688,59.7344 Q697.4125,59.7344 698.0688,57.7188 L700.3344,58.1406 Q699.225,61.6719 696.0531,61.6719 Q693.7094,61.6719 692.4906,60.1875 Q691.2719,58.7031 691.2719,55.8438 Q691.2719,50.125 695.975,50.125 Q697.5219,50.125 698.5609,50.9375 Q699.6,51.75 700.1,53.3594 L697.8344,53.9063 Q697.6,53.0313 697.1156,52.5391 Q696.6313,52.0469 696.0063,52.0469 Q693.7563,52.0469 693.7563,55.8438 Z "/><text fill="#000000" font-family="sans-serif" font-size="12" lengthAdjust="spacingAndGlyphs" textLength="61" x="715.15" y="60.6553">orientation</text><line style="stroke: #A80036; stroke-width: 1.5;" x1="658" x2="802" y1="72" y2="72"/><ellipse cx="668" cy="84.99" fill="none" rx="3" ry="3" style="stroke: #038048; stroke-width: 1.0;"/><text fill="#000000" font-family="sans-serif" font-size="11" lengthAdjust="spacingAndGlyphs" textLength="106" x="677" y="87.7573">CS: crystalSymmetry</text><ellipse cx="668" cy="99.97" fill="none" rx="3" ry="3" style="stroke: #038048; stroke-width: 1.0;"/><text fill="#000000" font-family="sans-serif" font-size="11" lengthAdjust="spacingAndGlyphs" textLength="120" x="677" y="102.7373">SS: specimenSymmetry</text><ellipse cx="668" cy="114.95" fill="none" rx="3" ry="3" style="stroke: #038048; stroke-width: 1.0;"/><text fill="#000000" font-family="sans-serif" font-size="11" lengthAdjust="spacingAndGlyphs" textLength="90" x="677" y="117.7173">antipodal: logical</text><line style="stroke: #A80036; stroke-width: 1.5;" x1="658" x2="802" y1="124.9399" y2="124.9399"/></a><!--class vector3d--><a target="_top" xlink:href="/files/doc/vector3d_index.html" xlink:title="/files/doc/vector3d_index.html"><rect fill="#FEFECE" filter="url(#f88w97u)" height="77.96" style="stroke: #A80036; stroke-width: 1.5;" width="116" x="358" y="611.5"/><ellipse cx="388.75" cy="627.5" fill="#ADD1B2" rx="11" ry="11" style="stroke: #A80036; stroke-width: 1.0;"/><path d="M386.6563,627.3438 Q386.6563,629.2188 387.2344,630.2266 Q387.8125,631.2344 388.9688,631.2344 Q390.3125,631.2344 390.9688,629.2188 L393.2344,629.6406 Q392.125,633.1719 388.9531,633.1719 Q386.6094,633.1719 385.3906,631.6875 Q384.1719,630.2031 384.1719,627.3438 Q384.1719,621.625 388.875,621.625 Q390.4219,621.625 391.4609,622.4375 Q392.5,623.25 393,624.8594 L390.7344,625.4063 Q390.5,624.5313 390.0156,624.0391 Q389.5313,623.5469 388.9063,623.5469 Q386.6563,623.5469 386.6563,627.3438 Z "/><text fill="#000000" font-family="sans-serif" font-size="12" lengthAdjust="spacingAndGlyphs" textLength="49" x="406.25" y="632.1553">vector3d</text><line style="stroke: #A80036; stroke-width: 1.5;" x1="359" x2="473" y1="643.5" y2="643.5"/><ellipse cx="369" cy="656.49" fill="none" rx="3" ry="3" style="stroke: #038048; stroke-width: 1.0;"/><text fill="#000000" font-family="sans-serif" font-size="11" lengthAdjust="spacingAndGlyphs" textLength="66" x="378" y="659.2573">x,y,z: double</text><ellipse cx="369" cy="671.47" fill="none" rx="3" ry="3" style="stroke: #038048; stroke-width: 1.0;"/><text fill="#000000" font-family="sans-serif" font-size="11" lengthAdjust="spacingAndGlyphs" textLength="90" x="378" y="674.2373">antipodal: logical</text><line style="stroke: #A80036; stroke-width: 1.5;" x1="359" x2="473" y1="681.46" y2="681.46"/></a><!--class Miller--><rect fill="#FEFECE" filter="url(#f88w97u)" height="92.9399" style="stroke: #A80036; stroke-width: 1.5;" width="132" x="544" y="604"/><ellipse cx="589.75" cy="620" fill="#ADD1B2" rx="11" ry="11" style="stroke: #A80036; stroke-width: 1.0;"/><path d="M587.6563,619.8438 Q587.6563,621.7188 588.2344,622.7266 Q588.8125,623.7344 589.9688,623.7344 Q591.3125,623.7344 591.9688,621.7188 L594.2344,622.1406 Q593.125,625.6719 589.9531,625.6719 Q587.6094,625.6719 586.3906,624.1875 Q585.1719,622.7031 585.1719,619.8438 Q585.1719,614.125 589.875,614.125 Q591.4219,614.125 592.4609,614.9375 Q593.5,615.75 594,617.3594 L591.7344,617.9063 Q591.5,617.0313 591.0156,616.5391 Q590.5313,616.0469 589.9063,616.0469 Q587.6563,616.0469 587.6563,619.8438 Z "/><text fill="#000000" font-family="sans-serif" font-size="12" lengthAdjust="spacingAndGlyphs" textLength="32" x="610.25" y="624.6553">Miller</text><line style="stroke: #A80036; stroke-width: 1.5;" x1="545" x2="675" y1="636" y2="636"/><ellipse cx="555" cy="648.99" fill="none" rx="3" ry="3" style="stroke: #038048; stroke-width: 1.0;"/><a target="_top" xlink:href="crystalSymmetry_index.html" xlink:title="crystalSymmetry_index.html"><text fill="#000000" font-family="sans-serif" font-size="11" lengthAdjust="spacingAndGlyphs" textLength="106" x="564" y="651.7573">CS: crystalSymmetry</text></a><rect fill="none" height="6" style="stroke: #C82930; stroke-width: 1.0;" width="6" x="552" y="660.97"/><text fill="#000000" font-family="sans-serif" font-size="11" lengthAdjust="spacingAndGlyphs" textLength="65" x="564" y="666.7373">h,k,l: double</text><rect fill="none" height="6" style="stroke: #C82930; stroke-width: 1.0;" width="6" x="552" y="675.95"/><text fill="#000000" font-family="sans-serif" font-size="11" lengthAdjust="spacingAndGlyphs" textLength="71" x="564" y="681.7173">u,v,w: double</text><line style="stroke: #A80036; stroke-width: 1.5;" x1="545" x2="675" y1="688.9399" y2="688.9399"/><!--class slipSystem--><rect fill="#FEFECE" filter="url(#f88w97u)" height="107.9199" style="stroke: #A80036; stroke-width: 1.5;" width="132" x="6" y="417"/><ellipse cx="39" cy="433" fill="#ADD1B2" rx="11" ry="11" style="stroke: #A80036; stroke-width: 1.0;"/><path d="M36.9063,432.8438 Q36.9063,434.7188 37.4844,435.7266 Q38.0625,436.7344 39.2188,436.7344 Q40.5625,436.7344 41.2188,434.7188 L43.4844,435.1406 Q42.375,438.6719 39.2031,438.6719 Q36.8594,438.6719 35.6406,437.1875 Q34.4219,435.7031 34.4219,432.8438 Q34.4219,427.125 39.125,427.125 Q40.6719,427.125 41.7109,427.9375 Q42.75,428.75 43.25,430.3594 L40.9844,430.9063 Q40.75,430.0313 40.2656,429.5391 Q39.7813,429.0469 39.1563,429.0469 Q36.9063,429.0469 36.9063,432.8438 Z "/><text fill="#000000" font-family="sans-serif" font-size="12" lengthAdjust="spacingAndGlyphs" textLength="60" x="57" y="437.6553">slipSystem</text><line style="stroke: #A80036; stroke-width: 1.5;" x1="7" x2="137" y1="449" y2="449"/><ellipse cx="17" cy="461.99" fill="none" rx="3" ry="3" style="stroke: #038048; stroke-width: 1.0;"/><a target="_top" xlink:href="/files/doc/Miller_index.html" xlink:title="/files/doc/Miller_index.html"><text fill="#000000" font-family="sans-serif" font-size="11" lengthAdjust="spacingAndGlyphs" textLength="43" x="26" y="464.7573">b: Miller</text></a><ellipse cx="17" cy="476.97" fill="none" rx="3" ry="3" style="stroke: #038048; stroke-width: 1.0;"/><a target="_top" xlink:href="/files/doc/Miller_index.html" xlink:title="/files/doc/Miller_index.html"><text fill="#000000" font-family="sans-serif" font-size="11" lengthAdjust="spacingAndGlyphs" textLength="43" x="26" y="479.7373">n: Miller</text></a><ellipse cx="17" cy="491.95" fill="none" rx="3" ry="3" style="stroke: #038048; stroke-width: 1.0;"/><text fill="#000000" font-family="sans-serif" font-size="11" lengthAdjust="spacingAndGlyphs" textLength="69" x="26" y="494.7173">CRSS: double</text><rect fill="none" height="6" style="stroke: #C82930; stroke-width: 1.0;" width="6" x="14" y="503.9299"/><text fill="#000000" font-family="sans-serif" font-size="11" lengthAdjust="spacingAndGlyphs" textLength="106" x="26" y="509.6973">CS: crystalSymmetry</text><line style="stroke: #A80036; stroke-width: 1.5;" x1="7" x2="137" y1="516.9199" y2="516.9199"/><!--class fibre--><rect fill="#FEFECE" filter="url(#f88w97u)" height="77.96" style="stroke: #A80036; stroke-width: 1.5;" width="104" x="838" y="47.5"/><ellipse cx="873.7" cy="63.5" fill="#ADD1B2" rx="11" ry="11" style="stroke: #A80036; stroke-width: 1.0;"/><path d="M871.6063,63.3438 Q871.6063,65.2188 872.1844,66.2266 Q872.7625,67.2344 873.9188,67.2344 Q875.2625,67.2344 875.9188,65.2188 L878.1844,65.6406 Q877.075,69.1719 873.9031,69.1719 Q871.5594,69.1719 870.3406,67.6875 Q869.1219,66.2031 869.1219,63.3438 Q869.1219,57.625 873.825,57.625 Q875.3719,57.625 876.4109,58.4375 Q877.45,59.25 877.95,60.8594 L875.6844,61.4063 Q875.45,60.5313 874.9656,60.0391 Q874.4813,59.5469 873.8563,59.5469 Q871.6063,59.5469 871.6063,63.3438 Z "/><text fill="#000000" font-family="sans-serif" font-size="12" lengthAdjust="spacingAndGlyphs" textLength="26" x="892.3" y="68.1553">fibre</text><line style="stroke: #A80036; stroke-width: 1.5;" x1="839" x2="941" y1="79.5" y2="79.5"/><ellipse cx="849" cy="92.49" fill="none" rx="3" ry="3" style="stroke: #038048; stroke-width: 1.0;"/><text fill="#000000" font-family="sans-serif" font-size="11" lengthAdjust="spacingAndGlyphs" textLength="78" x="858" y="95.2573">o1: orientation</text><ellipse cx="849" cy="107.47" fill="none" rx="3" ry="3" style="stroke: #038048; stroke-width: 1.0;"/><text fill="#000000" font-family="sans-serif" font-size="11" lengthAdjust="spacingAndGlyphs" textLength="43" x="858" y="110.2373">h: Miller</text><line style="stroke: #A80036; stroke-width: 1.5;" x1="839" x2="941" y1="117.46" y2="117.46"/><!--class S2Grid--><rect fill="#FEFECE" filter="url(#f88w97u)" height="62.98" style="stroke: #A80036; stroke-width: 1.5;" width="109" x="179.5" y="619"/><ellipse cx="212.05" cy="635" fill="#ADD1B2" rx="11" ry="11" style="stroke: #A80036; stroke-width: 1.0;"/><path d="M209.9563,634.8438 Q209.9563,636.7188 210.5344,637.7266 Q211.1125,638.7344 212.2688,638.7344 Q213.6125,638.7344 214.2688,636.7188 L216.5344,637.1406 Q215.425,640.6719 212.2531,640.6719 Q209.9094,640.6719 208.6906,639.1875 Q207.4719,637.7031 207.4719,634.8438 Q207.4719,629.125 212.175,629.125 Q213.7219,629.125 214.7609,629.9375 Q215.8,630.75 216.3,632.3594 L214.0344,632.9063 Q213.8,632.0313 213.3156,631.5391 Q212.8313,631.0469 212.2063,631.0469 Q209.9563,631.0469 209.9563,634.8438 Z "/><text fill="#000000" font-family="sans-serif" font-size="12" lengthAdjust="spacingAndGlyphs" textLength="38" x="229.95" y="639.6553">S2Grid</text><line style="stroke: #A80036; stroke-width: 1.5;" x1="180.5" x2="287.5" y1="651" y2="651"/><text fill="#000000" font-family="sans-serif" font-size="11" lengthAdjust="spacingAndGlyphs" textLength="97" x="185.5" y="666.7573">resolution: double</text><line style="stroke: #A80036; stroke-width: 1.5;" x1="180.5" x2="287.5" y1="673.98" y2="673.98"/><!--class SO3Grid--><rect fill="#FEFECE" filter="url(#f88w97u)" height="62.98" style="stroke: #A80036; stroke-width: 1.5;" width="109" x="708.5" y="439.5"/><ellipse cx="737" cy="455.5" fill="#ADD1B2" rx="11" ry="11" style="stroke: #A80036; stroke-width: 1.0;"/><path d="M734.9063,455.3438 Q734.9063,457.2188 735.4844,458.2266 Q736.0625,459.2344 737.2188,459.2344 Q738.5625,459.2344 739.2188,457.2188 L741.4844,457.6406 Q740.375,461.1719 737.2031,461.1719 Q734.8594,461.1719 733.6406,459.6875 Q732.4219,458.2031 732.4219,455.3438 Q732.4219,449.625 737.125,449.625 Q738.6719,449.625 739.7109,450.4375 Q740.75,451.25 741.25,452.8594 L738.9844,453.4063 Q738.75,452.5313 738.2656,452.0391 Q737.7813,451.5469 737.1563,451.5469 Q734.9063,451.5469 734.9063,455.3438 Z "/><text fill="#000000" font-family="sans-serif" font-size="12" lengthAdjust="spacingAndGlyphs" textLength="47" x="754" y="460.1553">SO3Grid</text><line style="stroke: #A80036; stroke-width: 1.5;" x1="709.5" x2="816.5" y1="471.5" y2="471.5"/><text fill="#000000" font-family="sans-serif" font-size="11" lengthAdjust="spacingAndGlyphs" textLength="97" x="714.5" y="487.2573">resolution: double</text><line style="stroke: #A80036; stroke-width: 1.5;" x1="709.5" x2="816.5" y1="494.48" y2="494.48"/><!--class sphericalRegion--><rect fill="#FEFECE" filter="url(#f88w97u)" height="92.9399" style="stroke: #A80036; stroke-width: 1.5;" width="121" x="173.5" y="424.5"/><ellipse cx="188.5" cy="440.5" fill="#ADD1B2" rx="11" ry="11" style="stroke: #A80036; stroke-width: 1.0;"/><path d="M186.4063,440.3438 Q186.4063,442.2188 186.9844,443.2266 Q187.5625,444.2344 188.7188,444.2344 Q190.0625,444.2344 190.7188,442.2188 L192.9844,442.6406 Q191.875,446.1719 188.7031,446.1719 Q186.3594,446.1719 185.1406,444.6875 Q183.9219,443.2031 183.9219,440.3438 Q183.9219,434.625 188.625,434.625 Q190.1719,434.625 191.2109,435.4375 Q192.25,436.25 192.75,437.8594 L190.4844,438.4063 Q190.25,437.5313 189.7656,437.0391 Q189.2813,436.5469 188.6563,436.5469 Q186.4063,436.5469 186.4063,440.3438 Z "/><text fill="#000000" font-family="sans-serif" font-size="12" lengthAdjust="spacingAndGlyphs" textLength="89" x="202.5" y="445.1553">sphericalRegion</text><line style="stroke: #A80036; stroke-width: 1.5;" x1="174.5" x2="293.5" y1="456.5" y2="456.5"/><ellipse cx="184.5" cy="469.49" fill="none" rx="3" ry="3" style="stroke: #038048; stroke-width: 1.0;"/><text fill="#000000" font-family="sans-serif" font-size="11" lengthAdjust="spacingAndGlyphs" textLength="60" x="193.5" y="472.2573">N: vector3d</text><ellipse cx="184.5" cy="484.47" fill="none" rx="3" ry="3" style="stroke: #038048; stroke-width: 1.0;"/><text fill="#000000" font-family="sans-serif" font-size="11" lengthAdjust="spacingAndGlyphs" textLength="72" x="193.5" y="487.2373">alpha: double</text><ellipse cx="184.5" cy="499.45" fill="none" rx="3" ry="3" style="stroke: #038048; stroke-width: 1.0;"/><text fill="#000000" font-family="sans-serif" font-size="11" lengthAdjust="spacingAndGlyphs" textLength="90" x="193.5" y="502.2173">antipodal: logical</text><line style="stroke: #A80036; stroke-width: 1.5;" x1="174.5" x2="293.5" y1="509.4399" y2="509.4399"/><!--class orientationRegion--><rect fill="#FEFECE" filter="url(#f88w97u)" height="107.9199" style="stroke: #A80036; stroke-width: 1.5;" width="131" x="402.5" y="417"/><ellipse cx="417.5" cy="433" fill="#ADD1B2" rx="11" ry="11" style="stroke: #A80036; stroke-width: 1.0;"/><path d="M415.4063,432.8438 Q415.4063,434.7188 415.9844,435.7266 Q416.5625,436.7344 417.7188,436.7344 Q419.0625,436.7344 419.7188,434.7188 L421.9844,435.1406 Q420.875,438.6719 417.7031,438.6719 Q415.3594,438.6719 414.1406,437.1875 Q412.9219,435.7031 412.9219,432.8438 Q412.9219,427.125 417.625,427.125 Q419.1719,427.125 420.2109,427.9375 Q421.25,428.75 421.75,430.3594 L419.4844,430.9063 Q419.25,430.0313 418.7656,429.5391 Q418.2813,429.0469 417.6563,429.0469 Q415.4063,429.0469 415.4063,432.8438 Z "/><text fill="#000000" font-family="sans-serif" font-size="12" lengthAdjust="spacingAndGlyphs" textLength="99" x="431.5" y="437.6553">orientationRegion</text><line style="stroke: #A80036; stroke-width: 1.5;" x1="403.5" x2="532.5" y1="449" y2="449"/><ellipse cx="413.5" cy="461.99" fill="none" rx="3" ry="3" style="stroke: #038048; stroke-width: 1.0;"/><text fill="#000000" font-family="sans-serif" font-size="11" lengthAdjust="spacingAndGlyphs" textLength="73" x="422.5" y="464.7573">N: orientation</text><ellipse cx="413.5" cy="476.97" fill="none" rx="3" ry="3" style="stroke: #038048; stroke-width: 1.0;"/><text fill="#000000" font-family="sans-serif" font-size="11" lengthAdjust="spacingAndGlyphs" textLength="72" x="422.5" y="479.7373">V: orientation</text><ellipse cx="413.5" cy="491.95" fill="none" rx="3" ry="3" style="stroke: #038048; stroke-width: 1.0;"/><text fill="#000000" font-family="sans-serif" font-size="11" lengthAdjust="spacingAndGlyphs" textLength="9" x="422.5" y="494.7173">F:</text><ellipse cx="413.5" cy="506.9299" fill="none" rx="3" ry="3" style="stroke: #038048; stroke-width: 1.0;"/><text fill="#000000" font-family="sans-serif" font-size="11" lengthAdjust="spacingAndGlyphs" textLength="90" x="422.5" y="509.6973">antipodal: logical</text><line style="stroke: #A80036; stroke-width: 1.5;" x1="403.5" x2="532.5" y1="516.9199" y2="516.9199"/><path d="M399.588,86.5 C415.989,86.5 432.39,86.5 448.791,86.5 " fill="none" style="stroke: #A80036; stroke-width: 1.0;"/><polygon fill="none" points="399.582,93.5,379.582,86.5,399.582,79.5,399.582,93.5" style="stroke: #A80036; stroke-width: 1.0;"/><path d="M607.311,86.5 C623.841,86.5 640.37,86.5 656.9,86.5 " fill="none" style="stroke: #A80036; stroke-width: 1.0;"/><polygon fill="none" points="607.148,93.5,587.148,86.5,607.148,79.5,607.148,93.5" style="stroke: #A80036; stroke-width: 1.0;"/><path d="M499.031,144.889 C492.654,164.183 485.521,185.762 479.063,205.301 " fill="none" style="stroke: #A80036; stroke-width: 1.0;"/><polygon fill="none" points="492.42,142.585,505.343,125.793,505.713,146.979,492.42,142.585" style="stroke: #A80036; stroke-width: 1.0;"/><path d="M541.758,267 C558.322,267 574.885,267 591.449,267 " fill="none" style="stroke: #A80036; stroke-width: 1.0;"/><polygon fill="none" points="541.555,274,521.555,267,541.555,260,541.555,274" style="stroke: #A80036; stroke-width: 1.0;"/><path d="M326.93,267 C343.373,267 359.817,267 376.261,267 " fill="none" style="stroke: #A80036; stroke-width: 1.0;"/><polygon fill="none" points="376.318,260,396.318,267,376.318,274,376.318,260" style="stroke: #A80036; stroke-width: 1.0;"/><path d="M494.417,650.5 C510.866,650.5 527.316,650.5 543.765,650.5 " fill="none" style="stroke: #A80036; stroke-width: 1.0;"/><polygon fill="none" points="494.352,657.4999,474.352,650.5,494.352,643.4999,494.352,657.4999" style="stroke: #A80036; stroke-width: 1.0;"/><path d="M220.743,336.106 C223.432,363.267 226.474,393.99 228.965,419.149 " fill="none" style="stroke: #A80036; stroke-width: 1.0;"/><polygon fill="#A80036" points="229.488,424.43,232.5814,415.0795,228.9951,419.4543,224.6203,415.8681,229.488,424.43" style="stroke: #A80036; stroke-width: 1.0;"/><text fill="#000000" font-family="sans-serif" font-size="13" lengthAdjust="spacingAndGlyphs" textLength="123" x="227" y="382.895">fundamentalSector()</text><polygon fill="#000000" points="284,392.7036,287,398.7036,290,392.7036,284,392.7036" style="stroke: #000000; stroke-width: 1.0;"/><path d="M326.536,334.267 C342.256,344.933 357.854,356.325 372,368 C388.339,381.485 404.675,397.604 419.118,413.003 " fill="none" style="stroke: #A80036; stroke-width: 1.0;"/><polygon fill="#A80036" points="422.748,416.9,419.5416,407.5877,419.3404,413.241,413.6872,413.0398,422.748,416.9" style="stroke: #A80036; stroke-width: 1.0;"/><text fill="#000000" font-family="sans-serif" font-size="13" lengthAdjust="spacingAndGlyphs" textLength="127" x="394" y="382.895">fundamentalRegion()</text><polygon fill="#000000" points="524,376.3518,530,379.3518,524,382.3518,524,376.3518" style="stroke: #000000; stroke-width: 1.0;"/><path d="M132.146,336.159 C122.872,346.189 114.189,356.904 107,368 C98.403,381.27 91.6691,396.885 86.5047,411.854 " fill="none" style="stroke: #A80036; stroke-width: 1.0;"/><polygon fill="#A80036" points="84.8131,416.901,91.4673,409.64,86.403,412.1605,83.8825,407.0962,84.8131,416.901" style="stroke: #A80036; stroke-width: 1.0;"/><text fill="#000000" font-family="sans-serif" font-size="13" lengthAdjust="spacingAndGlyphs" textLength="94" x="108" y="382.895">fcc(), bcc(), hcp()</text><polygon fill="#000000" points="150.5,392.7036,153.5,398.7036,156.5,392.7036,150.5,392.7036" style="stroke: #000000; stroke-width: 1.0;"/><path d="M234,517.711 C234,547.591 234,586.059 234,613.712 " fill="none" style="stroke: #A80036; stroke-width: 1.0;"/><polygon fill="#A80036" points="234,618.745,238,609.745,234,613.745,230,609.745,234,618.745" style="stroke: #A80036; stroke-width: 1.0;"/><text fill="#000000" font-family="sans-serif" font-size="13" lengthAdjust="spacingAndGlyphs" textLength="71" x="235" y="569.895">plotS2Grid()</text><polygon fill="#000000" points="266,579.7036,269,585.7036,272,579.7036,266,579.7036" style="stroke: #000000; stroke-width: 1.0;"/><path d="M533.766,486.946 C546.697,489.466 560.217,491.675 573,493 C615.439,497.398 626.615,497.894 669,493 C680.118,491.716 691.831,489.606 703.072,487.187 " fill="none" style="stroke: #A80036; stroke-width: 1.0;"/><polygon fill="#A80036" points="708.2,486.055,698.5495,484.0883,703.3175,487.1324,700.2733,491.9003,708.2,486.055" style="stroke: #A80036; stroke-width: 1.0;"/><text fill="#000000" font-family="sans-serif" font-size="13" lengthAdjust="spacingAndGlyphs" textLength="81" x="574" y="488.895">plotSO3Grid()</text><polygon fill="#000000" points="658,482.3518,664,485.3518,658,488.3518,658,482.3518" style="stroke: #000000; stroke-width: 1.0;"/><path d="M533.837,471 C584.463,471 653.833,471 702.952,471 " fill="none" style="stroke: #A80036; stroke-width: 1.0;"/><polygon fill="#A80036" points="708.238,471,699.238,467,703.238,471,699.238,475,708.238,471" style="stroke: #A80036; stroke-width: 1.0;"/><text fill="#000000" font-family="sans-serif" font-size="13" lengthAdjust="spacingAndGlyphs" textLength="125" x="552" y="463.895">equispacedSO3Grid()</text><polygon fill="#000000" points="680,457.3518,686,460.3518,680,463.3518,680,457.3518" style="stroke: #000000; stroke-width: 1.0;"/><path d="M288.742,650.5 C305.027,650.5 321.311,650.5 337.596,650.5 " fill="none" style="stroke: #A80036; stroke-width: 1.0;"/><polygon fill="none" points="337.839,643.4999,357.839,650.5,337.839,657.4999,337.839,643.4999" style="stroke: #A80036; stroke-width: 1.0;"/><path d="M763.746,439.14 C764.607,385.114 764.465,270.008 751,174 C750.037,167.135 748.767,160.02 747.327,152.953 " fill="none" style="stroke: #A80036; stroke-width: 1.0;"/><polygon fill="none" points="740.491,154.461,742.931,133.412,754.15,151.388,740.491,154.461" style="stroke: #A80036; stroke-width: 1.0;"/></g></svg>