<?xml version="1.0" encoding="UTF-8" standalone="yes"?><svg xmlns="http://www.w3.org/2000/svg" xmlns:xlink="http://www.w3.org/1999/xlink" height="173px" style="width:1006px;height:173px;" version="1.1" viewBox="0 0 1006 173" width="1006px"><defs><filter height="300%" id="fth60g6" width="300%" x="-1" y="-1"><feGaussianBlur result="blurOut" stdDeviation="2.0"/><feColorMatrix in="blurOut" result="blurOut2" type="matrix" values="0 0 0 0 0 0 0 0 0 0 0 0 0 0 0 0 0 0 .4 0"/><feOffset dx="4.0" dy="4.0" in="blurOut2" result="blurOut3"/><feBlend in="SourceGraphic" in2="blurOut3" mode="normal"/></filter></defs><g><!--class ODFComponent--><rect fill="#FEFECE" filter="url(#fth60g6)" height="48" style="stroke: #A80036; stroke-width: 1.5;" width="118" x="453.5" y="8"/><ellipse cx="468.5" cy="24" fill="#A9DCDF" rx="11" ry="11" style="stroke: #A80036; stroke-width: 1.0;"/><path d="M473.7031,28.5 L471.2656,28.5 L470.5,25.7656 L466.7188,25.7656 L465.9531,28.5 L463.5,28.5 L467.1719,17.2969 L470.0313,17.2969 L473.7031,28.5 Z M468.6094,18.8125 Q468.5313,19.1563 468.3594,19.8516 Q468.1875,20.5469 467.2344,23.9219 L469.9844,23.9219 Q469.0156,20.5 468.8438,19.8281 Q468.6719,19.1563 468.6094,18.8125 Z "/><text fill="#000000" font-family="sans-serif" font-size="12" font-style="italic" lengthAdjust="spacingAndGlyphs" textLength="86" x="482.5" y="28.6553">ODFComponent</text><line style="stroke: #A80036; stroke-width: 1.5;" x1="454.5" x2="570.5" y1="40" y2="40"/><line style="stroke: #A80036; stroke-width: 1.5;" x1="454.5" x2="570.5" y1="48" y2="48"/><!--class uniformComponent--><rect fill="#FEFECE" filter="url(#fth60g6)" height="48" style="stroke: #A80036; stroke-width: 1.5;" width="141" x="6" y="116"/><ellipse cx="21" cy="132" fill="#ADD1B2" rx="11" ry="11" style="stroke: #A80036; stroke-width: 1.0;"/><path d="M18.9063,131.8438 Q18.9063,133.7188 19.4844,134.7266 Q20.0625,135.7344 21.2188,135.7344 Q22.5625,135.7344 23.2188,133.7188 L25.4844,134.1406 Q24.375,137.6719 21.2031,137.6719 Q18.8594,137.6719 17.6406,136.1875 Q16.4219,134.7031 16.4219,131.8438 Q16.4219,126.125 21.125,126.125 Q22.6719,126.125 23.7109,126.9375 Q24.75,127.75 25.25,129.3594 L22.9844,129.9063 Q22.75,129.0313 22.2656,128.5391 Q21.7813,128.0469 21.1563,128.0469 Q18.9063,128.0469 18.9063,131.8438 Z "/><text fill="#000000" font-family="sans-serif" font-size="12" lengthAdjust="spacingAndGlyphs" textLength="109" x="35" y="136.6553">uniformComponent</text><line style="stroke: #A80036; stroke-width: 1.5;" x1="7" x2="146" y1="148" y2="148"/><line style="stroke: #A80036; stroke-width: 1.5;" x1="7" x2="146" y1="156" y2="156"/><!--class unimodalComponent--><rect fill="#FEFECE" filter="url(#fth60g6)" height="48" style="stroke: #A80036; stroke-width: 1.5;" width="149" x="182" y="116"/><ellipse cx="197" cy="132" fill="#ADD1B2" rx="11" ry="11" style="stroke: #A80036; stroke-width: 1.0;"/><path d="M194.9063,131.8438 Q194.9063,133.7188 195.4844,134.7266 Q196.0625,135.7344 197.2188,135.7344 Q198.5625,135.7344 199.2188,133.7188 L201.4844,134.1406 Q200.375,137.6719 197.2031,137.6719 Q194.8594,137.6719 193.6406,136.1875 Q192.4219,134.7031 192.4219,131.8438 Q192.4219,126.125 197.125,126.125 Q198.6719,126.125 199.7109,126.9375 Q200.75,127.75 201.25,129.3594 L198.9844,129.9063 Q198.75,129.0313 198.2656,128.5391 Q197.7813,128.0469 197.1563,128.0469 Q194.9063,128.0469 194.9063,131.8438 Z "/><text fill="#000000" font-family="sans-serif" font-size="12" lengthAdjust="spacingAndGlyphs" textLength="117" x="211" y="136.6553">unimodalComponent</text><line style="stroke: #A80036; stroke-width: 1.5;" x1="183" x2="330" y1="148" y2="148"/><line style="stroke: #A80036; stroke-width: 1.5;" x1="183" x2="330" y1="156" y2="156"/><!--class fibreComponent--><rect fill="#FEFECE" filter="url(#fth60g6)" height="48" style="stroke: #A80036; stroke-width: 1.5;" width="123" x="366" y="116"/><ellipse cx="381" cy="132" fill="#ADD1B2" rx="11" ry="11" style="stroke: #A80036; stroke-width: 1.0;"/><path d="M378.9063,131.8438 Q378.9063,133.7188 379.4844,134.7266 Q380.0625,135.7344 381.2188,135.7344 Q382.5625,135.7344 383.2188,133.7188 L385.4844,134.1406 Q384.375,137.6719 381.2031,137.6719 Q378.8594,137.6719 377.6406,136.1875 Q376.4219,134.7031 376.4219,131.8438 Q376.4219,126.125 381.125,126.125 Q382.6719,126.125 383.7109,126.9375 Q384.75,127.75 385.25,129.3594 L382.9844,129.9063 Q382.75,129.0313 382.2656,128.5391 Q381.7813,128.0469 381.1563,128.0469 Q378.9063,128.0469 378.9063,131.8438 Z "/><text fill="#000000" font-family="sans-serif" font-size="12" lengthAdjust="spacingAndGlyphs" textLength="91" x="395" y="136.6553">fibreComponent</text><line style="stroke: #A80036; stroke-width: 1.5;" x1="367" x2="488" y1="148" y2="148"/><line style="stroke: #A80036; stroke-width: 1.5;" x1="367" x2="488" y1="156" y2="156"/><!--class BinghamComponent--><rect fill="#FEFECE" filter="url(#fth60g6)" height="48" style="stroke: #A80036; stroke-width: 1.5;" width="147" x="524" y="116"/><ellipse cx="539" cy="132" fill="#ADD1B2" rx="11" ry="11" style="stroke: #A80036; stroke-width: 1.0;"/><path d="M536.9063,131.8438 Q536.9063,133.7188 537.4844,134.7266 Q538.0625,135.7344 539.2188,135.7344 Q540.5625,135.7344 541.2188,133.7188 L543.4844,134.1406 Q542.375,137.6719 539.2031,137.6719 Q536.8594,137.6719 535.6406,136.1875 Q534.4219,134.7031 534.4219,131.8438 Q534.4219,126.125 539.125,126.125 Q540.6719,126.125 541.7109,126.9375 Q542.75,127.75 543.25,129.3594 L540.9844,129.9063 Q540.75,129.0313 540.2656,128.5391 Q539.7813,128.0469 539.1563,128.0469 Q536.9063,128.0469 536.9063,131.8438 Z "/><text fill="#000000" font-family="sans-serif" font-size="12" lengthAdjust="spacingAndGlyphs" textLength="115" x="553" y="136.6553">BinghamComponent</text><line style="stroke: #A80036; stroke-width: 1.5;" x1="525" x2="670" y1="148" y2="148"/><line style="stroke: #A80036; stroke-width: 1.5;" x1="525" x2="670" y1="156" y2="156"/><!--class femComponent--><rect fill="#FEFECE" filter="url(#fth60g6)" height="48" style="stroke: #A80036; stroke-width: 1.5;" width="119" x="706" y="116"/><ellipse cx="721" cy="132" fill="#ADD1B2" rx="11" ry="11" style="stroke: #A80036; stroke-width: 1.0;"/><path d="M718.9063,131.8438 Q718.9063,133.7188 719.4844,134.7266 Q720.0625,135.7344 721.2188,135.7344 Q722.5625,135.7344 723.2188,133.7188 L725.4844,134.1406 Q724.375,137.6719 721.2031,137.6719 Q718.8594,137.6719 717.6406,136.1875 Q716.4219,134.7031 716.4219,131.8438 Q716.4219,126.125 721.125,126.125 Q722.6719,126.125 723.7109,126.9375 Q724.75,127.75 725.25,129.3594 L722.9844,129.9063 Q722.75,129.0313 722.2656,128.5391 Q721.7813,128.0469 721.1563,128.0469 Q718.9063,128.0469 718.9063,131.8438 Z "/><text fill="#000000" font-family="sans-serif" font-size="12" lengthAdjust="spacingAndGlyphs" textLength="87" x="735" y="136.6553">femComponent</text><line style="stroke: #A80036; stroke-width: 1.5;" x1="707" x2="824" y1="148" y2="148"/><line style="stroke: #A80036; stroke-width: 1.5;" x1="707" x2="824" y1="156" y2="156"/><!--class FourierComponent--><rect fill="#FEFECE" filter="url(#fth60g6)" height="48" style="stroke: #A80036; stroke-width: 1.5;" width="137" x="860" y="116"/><ellipse cx="875" cy="132" fill="#ADD1B2" rx="11" ry="11" style="stroke: #A80036; stroke-width: 1.0;"/><path d="M872.9063,131.8438 Q872.9063,133.7188 873.4844,134.7266 Q874.0625,135.7344 875.2188,135.7344 Q876.5625,135.7344 877.2188,133.7188 L879.4844,134.1406 Q878.375,137.6719 875.2031,137.6719 Q872.8594,137.6719 871.6406,136.1875 Q870.4219,134.7031 870.4219,131.8438 Q870.4219,126.125 875.125,126.125 Q876.6719,126.125 877.7109,126.9375 Q878.75,127.75 879.25,129.3594 L876.9844,129.9063 Q876.75,129.0313 876.2656,128.5391 Q875.7813,128.0469 875.1563,128.0469 Q872.9063,128.0469 872.9063,131.8438 Z "/><text fill="#000000" font-family="sans-serif" font-size="12" lengthAdjust="spacingAndGlyphs" textLength="105" x="889" y="136.6553">FourierComponent</text><line style="stroke: #A80036; stroke-width: 1.5;" x1="861" x2="996" y1="148" y2="148"/><line style="stroke: #A80036; stroke-width: 1.5;" x1="861" x2="996" y1="156" y2="156"/><path d="M433.472,51.338 C362.861,67.8439 256.639,92.9742 164.5,116 C158.832,117.4165 152.964,118.9041 147.072,120.4125 " fill="none" style="stroke: #A80036; stroke-width: 1.0;"/><polygon fill="none" points="432.227,44.44,453.294,46.712,435.408,58.074,432.227,44.44" style="stroke: #A80036; stroke-width: 1.0;"/><path d="M438.306,63.721 C398.131,80.3558 349.312,100.5702 312.381,115.8617 " fill="none" style="stroke: #A80036; stroke-width: 1.0;"/><polygon fill="none" points="435.795,57.184,456.952,56,441.151,70.1193,435.795,57.184" style="stroke: #A80036; stroke-width: 1.0;"/><path d="M481.465,71.7021 C469.64,86.4485 456.536,102.7909 446.201,115.6784 " fill="none" style="stroke: #A80036; stroke-width: 1.0;"/><polygon fill="none" points="476.083,67.2243,494.056,56,487.005,75.9826,476.083,67.2243" style="stroke: #A80036; stroke-width: 1.0;"/><path d="M543.535,71.7021 C555.36,86.4485 568.464,102.7909 578.799,115.6784 " fill="none" style="stroke: #A80036; stroke-width: 1.0;"/><polygon fill="none" points="537.995,75.9826,530.944,56,548.917,67.2243,537.995,75.9826" style="stroke: #A80036; stroke-width: 1.0;"/><path d="M586.095,63.834 C625.747,80.4475 673.859,100.6049 710.274,115.8617 " fill="none" style="stroke: #A80036; stroke-width: 1.0;"/><polygon fill="none" points="583.139,70.1853,567.397,56,588.549,57.273,583.139,70.1853" style="stroke: #A80036; stroke-width: 1.0;"/><path d="M591.284,52.465 C658.193,69.0793 756.735,93.7472 842.5,116 C848.185,117.475 854.077,119.0189 859.989,120.5787 " fill="none" style="stroke: #A80036; stroke-width: 1.0;"/><polygon fill="none" points="589.31,59.187,571.583,47.578,592.68,45.599,589.31,59.187" style="stroke: #A80036; stroke-width: 1.0;"/></g></svg>